<mxfile host="app.diagrams.net" agent="Mozilla/5.0 (Windows NT 10.0; Win64; x64) AppleWebKit/537.36 (KHTML, like Gecko) Chrome/137.0.0.0 Safari/537.36" version="24.9.0">
  <diagram name="Page-1" id="2_gfs9sJz_ncC7yMdjCI">
    <mxGraphModel dx="2232" dy="1029" grid="1" gridSize="10" guides="1" tooltips="1" connect="1" arrows="1" fold="1" page="1" pageScale="1" pageWidth="827" pageHeight="1169" math="0" shadow="0">
      <root>
        <mxCell id="0" />
        <mxCell id="1" parent="0" />
        <mxCell id="UzyxxTVXNqjpSGp4Ei8d-1" value="User" style="verticalLabelPosition=bottom;html=1;verticalAlign=top;align=center;strokeColor=none;fillColor=#00BEF2;shape=mxgraph.azure.computer;pointerEvents=1;" vertex="1" parent="1">
          <mxGeometry x="60" y="601.25" width="50" height="45" as="geometry" />
        </mxCell>
        <mxCell id="UzyxxTVXNqjpSGp4Ei8d-2" value="Internet" style="html=1;verticalLabelPosition=bottom;align=center;labelBackgroundColor=#ffffff;verticalAlign=top;strokeWidth=2;strokeColor=#0080F0;shadow=0;dashed=0;shape=mxgraph.ios7.icons.globe;" vertex="1" parent="1">
          <mxGeometry x="180" y="413.75" width="50" height="52" as="geometry" />
        </mxCell>
        <mxCell id="UzyxxTVXNqjpSGp4Ei8d-3" value="App Service (Linux Web App)" style="image;aspect=fixed;html=1;points=[];align=center;fontSize=12;image=img/lib/azure2/app_services/App_Services.svg;" vertex="1" parent="1">
          <mxGeometry x="419" y="398" width="64" height="64" as="geometry" />
        </mxCell>
        <mxCell id="UzyxxTVXNqjpSGp4Ei8d-4" value="App Service Plan" style="image;aspect=fixed;html=1;points=[];align=center;fontSize=12;image=img/lib/azure2/app_services/App_Service_Plans.svg;" vertex="1" parent="1">
          <mxGeometry x="421" y="240" width="60" height="60" as="geometry" />
        </mxCell>
        <mxCell id="UzyxxTVXNqjpSGp4Ei8d-5" value="MySQL Flexible Server" style="image;aspect=fixed;html=1;points=[];align=center;fontSize=12;image=img/lib/azure2/databases/Azure_Database_MySQL_Server.svg;" vertex="1" parent="1">
          <mxGeometry x="427" y="860" width="48" height="64" as="geometry" />
        </mxCell>
        <mxCell id="UzyxxTVXNqjpSGp4Ei8d-16" value="Virtual Network" style="verticalLabelPosition=bottom;html=1;verticalAlign=top;align=center;strokeColor=none;fillColor=#00BEF2;shape=mxgraph.azure.virtual_network;pointerEvents=1;" vertex="1" parent="1">
          <mxGeometry x="426" y="610" width="50" height="27.500000000000004" as="geometry" />
        </mxCell>
        <mxCell id="UzyxxTVXNqjpSGp4Ei8d-39" style="edgeStyle=orthogonalEdgeStyle;rounded=0;orthogonalLoop=1;jettySize=auto;html=1;" edge="1" parent="1" source="UzyxxTVXNqjpSGp4Ei8d-17" target="UzyxxTVXNqjpSGp4Ei8d-3">
          <mxGeometry relative="1" as="geometry">
            <mxPoint x="410" y="380" as="targetPoint" />
            <Array as="points">
              <mxPoint x="361" y="100" />
              <mxPoint x="361" y="410" />
            </Array>
          </mxGeometry>
        </mxCell>
        <mxCell id="UzyxxTVXNqjpSGp4Ei8d-40" style="edgeStyle=orthogonalEdgeStyle;rounded=0;orthogonalLoop=1;jettySize=auto;html=1;entryX=0;entryY=0.5;entryDx=0;entryDy=0;entryPerimeter=0;" edge="1" parent="1" source="UzyxxTVXNqjpSGp4Ei8d-17" target="UzyxxTVXNqjpSGp4Ei8d-16">
          <mxGeometry relative="1" as="geometry">
            <mxPoint x="340" y="630" as="targetPoint" />
            <Array as="points">
              <mxPoint x="340" y="100" />
              <mxPoint x="340" y="624" />
            </Array>
          </mxGeometry>
        </mxCell>
        <mxCell id="UzyxxTVXNqjpSGp4Ei8d-41" style="edgeStyle=orthogonalEdgeStyle;rounded=0;orthogonalLoop=1;jettySize=auto;html=1;entryX=0.042;entryY=0.72;entryDx=0;entryDy=0;entryPerimeter=0;" edge="1" parent="1" source="UzyxxTVXNqjpSGp4Ei8d-17" target="UzyxxTVXNqjpSGp4Ei8d-24">
          <mxGeometry relative="1" as="geometry">
            <mxPoint x="320" y="780" as="targetPoint" />
            <Array as="points">
              <mxPoint x="320" y="100" />
              <mxPoint x="320" y="756" />
            </Array>
          </mxGeometry>
        </mxCell>
        <mxCell id="UzyxxTVXNqjpSGp4Ei8d-42" style="edgeStyle=orthogonalEdgeStyle;rounded=0;orthogonalLoop=1;jettySize=auto;html=1;" edge="1" parent="1" source="UzyxxTVXNqjpSGp4Ei8d-17">
          <mxGeometry relative="1" as="geometry">
            <mxPoint x="420" y="900" as="targetPoint" />
            <Array as="points">
              <mxPoint x="301" y="100" />
              <mxPoint x="301" y="900" />
            </Array>
          </mxGeometry>
        </mxCell>
        <mxCell id="UzyxxTVXNqjpSGp4Ei8d-17" value="Resource Group" style="image;sketch=0;aspect=fixed;html=1;points=[];align=center;fontSize=12;image=img/lib/mscae/ResourceGroup.svg;" vertex="1" parent="1">
          <mxGeometry x="423.72" y="80" width="50" height="40" as="geometry" />
        </mxCell>
        <mxCell id="UzyxxTVXNqjpSGp4Ei8d-20" value="" style="group" vertex="1" connectable="0" parent="1">
          <mxGeometry x="710" y="310" width="74" height="240" as="geometry" />
        </mxCell>
        <mxCell id="UzyxxTVXNqjpSGp4Ei8d-19" value="" style="rounded=1;whiteSpace=wrap;html=1;" vertex="1" parent="UzyxxTVXNqjpSGp4Ei8d-20">
          <mxGeometry width="74" height="240" as="geometry" />
        </mxCell>
        <mxCell id="UzyxxTVXNqjpSGp4Ei8d-11" value="" style="shape=image;imageAspect=0;aspect=fixed;verticalLabelPosition=bottom;verticalAlign=top;image=data:image/png,iVBORw0KGgoAAAANSUhEUgAAAUAAAAFACAMAAAD6TlWYAAADAFBMVEVHcEwAAAAAAAAAAAAAAAAAAAAAAAAAAAAAAAAAAAAAAAAAAAAAAAAAAAAAAAAAAAAAAAAAAAAAAAAAAAAAAAAAAAAAAAAAAAAAAAAAAAAAAAAAAAAAAAAAAAAAAAAAAAAAAAAAAAAAAAAAAAAAAAAAAAAAAAAAAAAAAAAAAAAAAAAAAAAAAAAAAAAAAAAAAAAAAAAAAAAAAAAAAAAAAAAAAAAAAAAAAAAAAAAAAAAAAAAAAAAAAAAAAAAAAAAAAAAAAAAAAAAAAAAAAAAAAAAAAAAAAAAAAAAAAAAAAAAAAAAAAAAAAAAAAAAAAAAAAAAAAAAAAAAAAAAAAAAAAAAAAAAAAAAAAAAAAAAAAAAAAAAAAAAAAAAAAAAAAAAAAAAAAAAAAAAAAAAAAAAAAAAAAAAAAAAAAAAAAAAAAAAAAAAAAAAAAAAAAAAAAAAAAAAAAAAAAAAAAAAAAAAAAAAAAAAAAAAAAAAAAAAAAAAAAAAAAAAAAAAAAAAAAAAAAAAAAAAAAAAAAAAAAAAAAAAAAAAAAAAAAAAAAAAAAAAAAAAAAAAAAAAAAAAAAAAAAAAAAAAAAAAAAAAAAAAAAAAAAAAAAAAAAAAAAAAAAAAAAAAAAAAAAAAAAAAAAAAAAAAAAAAAAAAAAAAAAAAAAAAAAAAAAAAAAAAAAAAAAAAAAAAAAAAAAAAAAAAAAAAAAAAAAAAAAAAAAAAAAAAAAAAAAAAAAAAAAAAAAAAAAAAAAAAAAAAAAAAAAAAAAAAAAAAAAAAAAAAAAAAAAAAAAAAAAAAAAAAAAAAAAAAAAAAAAAAAAAAAAAAAAAAAAAAAAAAAAAAAAAAAAAAAAAAAAAAAAAAAAAAAAAAAAAAAAAAAAAAAAAAAAAAAAAAAAAAAAAAAAAAAAAAAAAAAAAAAAAAAAAAAAAAAAAAAAAAAAAAAAAAAAAAAAAAAAAAAAAAAAAAAAAAAAAAAAAAAAAAAAAAAAAAAAAAAAAAAAAAAAAAAAAAAAAAAAAAAAAAAAAAAAADR7hC8AAABAHRSTlMAieSc4ePl6O3y8/f2+Pr9//78+/n19PDx7O7n6uui7+bp19DfzMvR09LH4tR1tMWLfFTg3sTBw9jV20JgzcbPbaXZaq9PmWmkfZF2kp2wXLs03atVwDqmyb5dqJSFNtq5sZqMg4KtN7Jsl7OYWGujuqx+p5uKhqCOe40zvEFDUn+Wj4GhTq63VlNlOWhmZFrK3F69nnk1lUzILU0kY6lJhCdvbohZMnNyLr9Ih2diYaqTn8JHend4PTt0SnFwGSlRRBo4V5CAMC9GP7VfziwrIijWSz4cHlC2uCMhQB8VHRQlEhEmDiATFxYYG0UqDTwxEAoPCAwLCQcFBgRbAwIB6w8JnwAALK5JREFUeNrswYEAAAAAgKD9qRepAgAAAACYfXsObHON3wZ+rauD57qT1O22urNt27Zt79i27TPbtm12KFZPNbIk7wm6pl27g1e/7emnSP6+ntv39/m3blWtVLlhq/DXl5rwH5S630w743z8qcW1ez004l8rFV2RIxPxl7ZeARvwr5VaTJdhMMudzzY5+LdKfcOROXq9CUAL9rqFf6vUq5wydeTINxfMKtOQFW7j3yrV2KPadNoE7cK/VSq7t+8kV1qt0eNfK9WzTqA/LbQn8B+UmhpIK8cz+A9KGV+qL2jWYBdK/Se3jtPM/whK/TdfB9JsbSZK/ScxzWmmmrD6WM+vt2x4d/X7Cz+4h3+sVM9AUgiSGk8vb0+VRlDy7p2Cf6hU6s+kONmKf9H4VHATNBMt8M+UihqlIT3aOJP03XY3fmsPWpTBP1Lq1GSJth7M4Jf7HRhdmxa/4x8olftuEAtoPD01tCrfD6X+3s3Rbiye3zCU+lvXLN23eKFH9Sj1ZDevsKjyFSTauHa9k2BCqSe4rGNR7Xa37t1LRyvPk2UnbjidlIPilTrci0WVAfTxfbrWlmglFIERV4f8tDQDxSj1rS+LmJyDvxh+G+pPO1LgzC0mlHpMWg8W4b8fFvdqObEQh/Mo9bjXWUDj/930vqJlGv6S9830GSysbixKPeZV2ugafDnobhYSOnn/YcJfulArWIjXeJR6TCeaCYdyq+7s/WX5sQc3IieU/9wIoI+WRah/j89EqcLS69Ms7MAnk5081DoPV8dzgXTdmADs0ZGSb0S1/uGCVsKzcr1Dh/UoZec9D5p5OyhpR12pTJmGqqByH319Mw991Cwg/Lr8hkdKnT7J4rmHLjifYsBfMuawENFgdTYsSuXeCePjJPfPRlb9IB0W2ThcgUUo10WjlD7mt1rTXVmE8Go+5fMLl/KgT4NFbmTaCg2LEFWa3IO8JZwY3NxZx0KEd/j8D4fFmmDW/sULsPh4VVQ1PkbxTp9dBsjX4R5qFubRsH/Vti+/9fFXQ+c9N+hBGsqyyimYfe67Y3kAH6du9fOv29MhT5Hf0Z4o3/fXhXv+6DrARSX4FyngyluzyOkZ+EtrKr4IZD6h9fB1/qxKaKW6dQecbBjebcfuXMhQGdpTv3m51oq6rhLteM1wp+fnAIxdaSFUAUH1Rg5tXev6ouiUqNS4zKx76VH7vnV27r8wxQSZiWpOG41CkOq+33myKI2GdKhlwJYKlNw+e/G1388v3bUttGq2Zf6JM8LK8CapDlp7Jx2ycqkOzZTho6pWE3yC8h3G9q006f2ttyy5JVakbqMJuD+z+jDY1KSZ5/o/Ik2Qj8wZJDXN+hxZPUPJkgmvpqOaLI0zweawD1n5NLbWXzYxHTY1aKVptOKujCK8P6JhvRpN/gxWs0Qa52pV+8XC3n5vUnMgvdOibORLrc98wvGNW5CNsxsnV3FniVTDp6++nYu8qEvX4m/mwibpz0q1Ky09MysPj3yiYAERvEcPWbj2RkM1SyK8Pz14+ZbB+NtH7V4McnR2PtfZABtT3I0omDLwyNlgFggeOrPh2Ht49mV+GCRYArXT8a/uxwJYWrbVi2Pbd6kTcnzzbpQkcgTtBD8w3n2txrOfYGRLHYuldanb6UC0pX1lRR6atDwTMJ65lIeSmMbXo1udOj5q2tT5Iyb7tUMGPNsO1+VjhM6nysgVU09lwmbhHqMJf+PiZif19GOXLh15t1NTT1po690+6nwHz7TvQ1lUYO+qPxxOygWQGoOcWtvuZCEqC0+Uvnt7jYYafmlN3JRwZ0GEimajqrJNNp5hKV/QnhCk5ncTrG69dhQPXOg5+AaeJHbLG81cFIKscBj5TMl7JoW7C2pVUt9EPLtyO/ERjWvEhB4akpXOZ8Mi+0YGsoZ6q90eogSme3cPHPzUW9BiZB7smJIutJ87ZcHqW3iGHS1PK2V4uxOLbho608yt23WY5Xw0bsyPGffP788sLvuYs0dbtKvupyVJodaSHAO5SRtHC9fpPySZCi7VpUq1jADQXUmGvwQ7JiNM2Tdv3z+wuNPI5hUUglYuQ16Z2kNwJeTmJR+SVE+4kAsYAGCiIEmvl2FmqNnUi2z1Qn6PvD7x9emzy07/oqKzu4Y2GjeniLqD75tiYuKD+RPkpgZJeoxJR9aBst26PozDxXokKSq9lQMAeanHBiv5dhqAtOuvh3sKFqJsNHle937XbmbmAnl5qMqqkJvqJKW5Obj3moqB83rmALc7eJOkZ6c0WKSdOOlwBHF9jnuzEOFe6dcNt/JgZ797GciNH8nmKUBrNd2nwiLjpU5NfTXeX8bBJvGDfe/1ULAI1dAEFJFSpyvkxo3kn0BsJfv3Mk0xXx/Yn4N8GduvKGlPdaWSj0S/P2+hsHth3QyQmQCSHwP7vUif8SiQt2+/LcLMt0a6szDH6LgHH88JC6i7H4Vk9O2bAZmJINka6C6RbHkPFvt2jvly2WdujrsBU0qTGZ7Mp1FpSFI6qAdgSj3V9ggKyRtxMh0y04Hk68A2klQfTIXZbj+aVY+/Xeubc2oWUJ78c9OCdV3bx+BxeXog58VWiZCZEwry0wRspJm2TU8jgKX+NKvznbOaFtoRn9FqXAaKl11jNZBV1yEeMnPxJKl419IChRB0HnLnzG9DJBamWFCFFmK0EcX7VrHGgJhwn7uQmx0SOTDuI1LXtUkoKTwqV9CyKCFo5t4lAcXTd2C11AeRtd2GQW4SPyW1i/eoqXyuuxOLJaz5eb9zOQclOBPCjdcPDvNVNIbsLBakczslqdGxeM13lq1fd1zNLVko0WW154VNQ9uq1W0hO7dDSCEJlijgGIxZmXo8SUd+FtlyUFVKgyA7xjksllttF28PlUQGJ8DMdCoNJTHN5/rd9Xq2JKdBfr5VsjgRTRb1vLD8p/neTrdhsS8HJcmdwBkfVfstiNwI+YkKZXGET7Wfbphg/EpqAZs8lEDfjf69liwdqGOZ0tJASpWbhSstpUYzZg7Kxe88eRFWZ2IAIDUbj/mG7HXbmFCNkyBDL7vTXtjdzJh2JFUfp6Um3JvqSFETVvv2GIDkK1/hMW3dtZsAvM/+RshPVFPa67UF8QNJMqDrykMvupMMOQ0L08YNQHL9vmkoKuennfcA3FdUy4UMHWQhlbt8R6/B4xSWFbRLL5JDYXVg+Ifp+PEXA0rwm//6NMjQHh3JBhX5iKRwWPXQi2YRL5KsmwmLre66q3sNKNHF2s1TIUPxvSg4oBsfWbYnROsuaCZJJH/OgcVyJem3AUXcy4BNcqvhyZCh3HF0DKNGMF+PFpVpp/o1WMU87y5GJT2W/13YJJ1zPgM5WswKDVkcoXRq+Onx88iXVyt0+HIUkXcTNskNXL+HHN33ZrHcp9y5lpSeB4uEnZt+SUbi5nIpKCIrG1YXe3luhRwlVWQBtVJDK+mQHvk+WPDe3sVd3547TJ+egSL2HYPVjw7q7ZAj43QWuHp04ZA6NKscjUe2+CpGnM848/zJ+VsNKCK3STIsDruKTyBLLVjAtcw1/OBGCnVoDCzyHsRA34V0K3vbeHZJh/YZKOL772HxkgdbQJbuu7GAcJo/QkPW274hGxa5NeqeyLzRjGTQ1FxkRj8WoEkPi6kaHoIsJTck6brOmSRVy654k+RzsDHlJc7UTd5/bd6nPsL9z1QUf6lp1pn8BrKkX0Oy+r3NgmT9GONKJckhsDFuP52wTqowMSP9wVfBuv5JxQWYC7MVnvzZCFnaRNLpwVlnkj5f/XZrAMmIi9ZsIo3xXT85VVajWxsHJB2YswElMe7ryC+yIUtHlSQHNGlOigD/CpX8SEodjZYAh85Nesu1ypKh9YO2W1IyoGT9PINjIEs3epGkSkWy9/k5Gpr5/n7jxNgL2fF1K70XRtfz2SlZ+DtnAx1vQJZyrjCfOrRreVqoHD3oPrnxonB3JdnfAGSb8GS3/XwPQ56GsoAQ+RedUoOmOt9Nx6qQXB9zOenAyyjEmIkCqTnAA1/VHcjTK2qS9FLSShWmJil1iI/d4aWa9pIT2SH9p5hF3eJhL+2yHjB8fhdmbW+czvpFJU5Ann5zJsk1awUtJA9BsloiYNisbfRj27Cw+wCMy+8iKRuPZJgP8iNDxgCAafPdefE7yOcgT1nLKMpz2alCr/tamlbmbP6EhCjYfLvIeA82+odxwC/aERkAcn998OWNcWQ7yNTzlF6dGXj6Iy3zhbxkjXah20EUqLX51vStsLLMKis5fFgUYLp+5PVLNdtIV/IgT+9qWSM6uH3CANp4PITZjcn+nG4CEgzp6QCwv++Z3nX2osBXVPtVSwVw6mMgKSIiAfJ01plNYxa2SZsm0UrT5gEAfCjI2aasvaPvHbDMD4nhK3/x+OwYHulIMuQGgFvRQEK4y2+Qp7QXqfwh97X7KUHMV/vDbGAnyXXYphqhX7kCQGra7NAzx1nlAfItJhlxE4DRlHlvr7uyMWTqV7K/vt8q1OAjiiEJ2OBBrsVsfold+4GLI058rG39scT18bAZJJHL0iwT8diZ3Sg+hkz9oqTbW/of8rZ48RFpVHZMJXIeunIszG41bHOkQpWjvcjZ6bDq503WywKAfedUEz7jXMiUue/2iDuTFFedVs4jKlPZFicU7IixbA8A0W81GZ25hq+NJLWvGmBhnnbKL84AcN19SPZXHJkLeTKWI1UHMu5iNK0afhNC9UNkj1buwPvSVAA/NtN8eRML1W5OJF23w6qFmgyNBfDRskRsV0ckQaZOaMh37o1P6C4xn8uhTCDrfhJ+UBwA4keS6p1ICqPFWljdGyJxtgFA5z2pOBXguwgyFe1Iut3JPr9TxXzDX31ggOn65xe6K3biheokWbsfpmlJirU3YBPfwFrau+r0ddyMEAshU/rZJMuaTp+kncBfU42j6OkvKh5sRIuwH1OvUHc1rDseaX38EgBcTI2HoSX/hFw91JKVd6OqRCu3rktmOYpvMm5XoqCXO23K6r+vXi49upYR+XLv2YXJdzIgU7eCSHbGrSq08h56bKM/VT/hyBofdp5LIVH6Ioj+L+BmOpCai6KyjcAdVUg85GotyUoxGEoboZRIhiUh8jhHzKZuciPh4kP1WyhBSl6UPtpBtRxytdedVOzBfS/a0/UBLv6sIflzz46funp/EY8SGLFnV1Z9zoJcpdcjuSYvvToLKWsCEiapSfWK7PQjw6JQsgs30YVXMiBXOwTpeh/zWEhEIoCseQpSPSkKT2Q0YaHkFA25+q22pcEVefHBszGAhG9/1tFheLez+Bu/OUgLIVfGOSR9LsQ1YyE1jNjXTdHLjwsu9W4+Hk+WcZztIFt33OgY0S2rKgvxGrt3pqDQcHjkMc+KR/BkVRmRDLm614MNXjk3LboR7fmsD1XSYnNURU6OwxONL684D9n6WKM+8H6d6x1pb0VG8vly/rSUbo2j4hU8UXpddoJsXYzgmqiRFWuF0s4kE5A7fkiIhkFJK8iDAExpJpRkBSN2QbYOMaBnv4Aq0xUsUPuUZYb58cSfC9FEcLARyJ21CBbpRhS1XKl+F7J1ujLLGNbSTUU787OQb1h5zrEsmc/C4uXDKCqlAVvqIVfGb3guZakDCyl/DPliK7GlAQWyd6EQU6rRMJh1rkG2+vmI9viGhai//DqvYLcSEg2LPAMelzn9MhZTcwKylduBdVPtr+YofHwZMPtdW1OL+VI51gSYgD+m10pFzqJc2MseuCzjqJK98yBbe73V3dP6soBX+xokdeFfRcIs7Q+nTfsPdDqM+VT1+MA4b6UJ9sb47740nC4PIFvZ49g3fRsLaJxcaCY12HQRAHK+0bip+VxaPZKtHtxv1Af2PnC8j8+9ORbytd1dfSI6hMXQVJx2E8CNkySDPwogycHpPzv8AjsZrz9AxmRWuQXZSmvDAbuGsljaSqtjgNVqUlIKkvR5YYNH5fOwk5iW2sKB0u+Qr+1uYtuZKiyernr7+LuOfKRz1kDW2QI7sR20JE/ug2xlz+Rnuz9X0kby1tCeNiRMUVCP3iNjJzngBgqc0JKktATydceLk+Lm0Ea57VUvFku7dtUy7zv93MkaJjxSw8eS4LlrkK2cDvTanlKXNsHna2r5SL3XRoSoaCGt2/2CU3h/HVn7NvKZ4k//0Ysky5ggW1v9uf7m/l60CWjpQhsP5zlZOZGXFwzwFiSFy4v+NFO3hb394SRdtkK2DEMozUIfV9pIknDX0Kxiz/ca5wKI3bLpqpqPeByFnfHp151JjoyDbH0fQr/7WKJgPu3zLcIFna9UWoQMPcx2jdExnzQ4HQWyWp5CTXUVlXoa5Kuj4DuxOQcl5qvw6objDLkQlWZLuFMDLc10Xr6V6227CTt52+JxZv2F/qyzCLJ18SQ1mxFVjaSkFiQpNezvyirXYWF6jTbeXY9FZqKwPBMMO3adrcI26ZCt1So6b8Xhz0hVuab5IyFZ+VtY3G7pTStl2UQU40E6fnHQbDJBru5NIEckYKKWDG8dRhvP+isyAODa7zVHqGglqkXicZl64HxQ4B3I1vUAamYh6juSrcopaSUN3A+z+OOSJJjvi90o3t2moZGQK+No0v8OapKkh5b5GtUyAEBCRz8WOLncgGLV8iyXCbmKDCfrJn//naAdyd+1oyUS4/4eLOD62vV96UVCvJUMZJTTbDZCrj5XUtQwXGynYwFNzRZN2yXCrAbtCLdWn/6ZAnttx+0DHlQu/x7kKq0/Wb4tsv5Uk3ZdOHLlu5a5tYkbCxP1jsBOUugCE/Ach38NuTpchwyNR+Z82nF/c1g2zPQf+7GIAWdhZ2/7PCC5Otdfgly1UJOv5eF2EO35z+mXB7O2Dizi7XQUtceNHdIhU3FtSPcDJlQVLMS1/8uWCGuSdPg53INKW/2WujUKMQB5o6idlweZ6lmbDD2Qc60Oi/AqextAe0H6r953tN3JFQ60CLsJew+ygegIerY3QaYm6qhZkG2cz6JEwxNZqKog6X3wIs6OCaHkLhU910K/WABT3RnYFjKVOZgM+hHdNXyMstvLcX/4khThHybi7jrfeQ1JsQr2MgyZeuQdFGw0HjJ1OogcjduVWYiQSLJ8ub2dPUhSG7z5TMag+cNJ/wsobMk0E5J7kJV+hEx94k6XfoZxLMR/0ty3nUl6n/QU5XUkpZCDw5K3tq55R4/CPnJ+GThShex2E/KU+7rgzJyH6iIX7K91XiaVV5HU/Pnem36CpM+abzPxmOiQVj2BO46UpmRCnpIHUtk99QvaU01pROrKrhriSjqt/PHr0RVIUllv5UUUNY/dMoHLztTN0kOe9tdm8I3x52hHqFQeSo2ufhcnCqrr/LxkrjfNtA0P3TWgkEsDVHsAtHWk24dGyNMqT3bSHx7s7y0xn8PKYy9PndWml46Sr0RqPCRaCYch43Nhr1+v3rkA3nKh6yATZCnveeG1BxlL+73NfKEJAKC/uGdUiE6QDX4vW1ti6O8fjmnjQJ9y13NgZ3m1FMuSUsHAqTJN8GY1Nr8G4PY52qhr5sLCGL35iwqSoszNM5tbBX65MMZ4dpQn3dY0zsMjppQMAIjtS7oslGmCpypyXRqAPzS0cX8uCzZpd1sEa0bsx7UhHlL9h7vi+jV5vl6dcsMMKOy6C8mAVQbI0gY/3Q4TkFiJ+RQzfr2vh819H9a+g9zLXer6NJo5q8nl7pPpMvpHFBIZQZLld+RAlnaq/b8FsNCDBfznLzyyLyY26ewr47Skw5Cj95B9vSkptDoNKVq1SIW9VQqWr1ld9Wc65CizAxv0BDLa0Z42YHjzk+f8dLRw/7TcG7Mq8hH1hFOwk7aOdfaWo7blJcjRmQGsHg0k91dTCEELjbuG9nyCvQTtNVxuQoEb6+mmIkX9DyBHF2pzRiSQPmhSGx9aec4f4kwLt5aVSdZ+t+e2ZiraqTDIiAKHm9Oi9uocyNABV169BgA7BG2UEY60UNWrYy1BOhL/kRPtuL5vn2DPMFJTN4KeXXZBfozT3Ll+KYDtviyJCKhezYX2fFeZUODuVUn7/ERXSvUbGyE7uZs9GHHUBMNEb/4dEbymnqNCkAw4ADuJnTwld62kov+rNyE7OR2VdFlyD4b3fVgM4eikIan1UpPaA8g6s2FjPQXpdAd2ch5WEfStLqhZttcgywR1vc/C2MSVRQhBrj370wxPVmx70PzdAMQeqqImee5r2LvWxUeoBUmfuZfkl+AmN7LZbhiregjakzp0/1IqXzUh+5fjbk3ra0ifo8B+H1qEfQ97+vv9y9NMaj4oCzKT29qV/CIemS9PO+5OO63mfqmhOrjmg1vtK9As9GvkNmmqolnzCygk50JZP0GSyjZb9JAX49TKZLdkAGmXK0ksSrgO6NCIVHmSjmNO5Sb88mvvvs2++PK8EYXpjxyyXsYHdNmNf8mAp1vjihSDkwAgpayOxVN5kxR+k7/6ZfeuqNQMFCfql07NPQVFr40p+OcuNWnX+5s99/A0+76HkH6+CACZNXR8IqELjPhiTbu5z+38JB2PMd1sXLObE6Xg1jfxz6T+fk5DZdna7XLwNNvXVSf6bjWaE1xHK4/hlfP7sLOXxMddiUNxco7cDyK1A1pfxD9wupuapH+TkBE5eKplfeVLvxr704G7TjRr1H1YG1poux4d5ESh1rAQx60olv6W6VsXktoqh07p/8HgYSZ5abfhKWeo1YiifPWhr3R3oJlXs2AtrVSNGqo5Yfug72hH9xFKZGriS5LC+cvl6XiSto60qRiPp17PgYKkVi34iCivo02DbUtfpY3UatyUq5M/z0ZJjPkbG8+6nY/koCTvOdHG/RM8A3ZNUTCf0AiSop6P3XLGhzbKqrde6F3pN5TM2KcOrYRLt49u56I4R5/7PYAWmhW5eBZk/+FCG82aZSSFJFgcj+GBHHgJTzK+h4bUakhS49R75alsFNU4aO48Fc3E9FQ8G0wbgmnj40NK7oKPEQ7hVWq7qilVrHrJlPLCLROKF7WtlXt/J1pJfiNqNk42wM4HQRQSLa6m4Jlxu7e6YOVcuaYXHyOc+/4880U/kuLTIefKBz0qTrh0G4VFtmjpqJCE2tdZQ1J4nuv/x/1kPawWNWe+iNN4hqQvcSRJQYeJv/euqybp/WJziSUL3ACL5c/fQOIPzw0Z9fyO89dyYJF1++jDzy8fO04b4dZwzcYfzsaZ0LMp8ykW4tnyYI2CrNyhQZVPYl9o50V+eqOWik+wPhEAtvd4IbZFcxVJCrXThIl3c5Ev7irt6SpUmv9rFT7idwoWej3spUxLxFMqa3WEUHerVTN4cM/co1dVmmZN+STSWANM25sP2r5MSwsR+JlWcm75Vipsro1upGaJpGWdu9fqM7Fdm7dHLX450QirM29rZ3wbY4KVSZ+nx1Mk8nVXhnTeWia8RnzWJ3XVfDKvmscOubgucyNJn1C126TDN66SVDT745ItAOONqVNCfSWWRNJqBC3jZMScT+6mZmRf+qm5ID1D141dvHPJxrlTWrap1qbdylt4augbH1dpmg36Zfanm5JTm9RX8UlstXBSsKeovrNenYd5wHOk5Bfu22DsUj2sTLFfvz/nU19BK23tgS3nfNl/cvUGLh4a2tP6hc4Y+JmaWh2LkCr1xNMjbnVzoei9d/ubL/6eHNfnijv/lsdsT8XIiAHjAWAlQzbejfyOosK6H84kZuSHmDpsyXotSQZsOpNtAoy595LvXv9k46h3gp18PSVSNVxNmyldSQqNwjvAqVVQqzqWYok2eJpc7FibPq9deOn5btvOZL5czkXQo0EFwRJJago6fI1YPdC+zhakdrGEoax87uqve2NgZTwfQJJljABMJuTLjY0/PEZFzvzBm1aiZV/Sq0atl3qePnPxzOEf3nAgWQFPFdPpLoF0nf1Kv51vjr6QdnhMlR7j25ZnMVSugjYT0l5Z/wF+rP62/shMPw29un6jI0nPsOfbRifExvcZ7CxIiubzF8xr13J6uzJVV711f2l0fOTZlw7VIVmlh4Z2dOvHtFh8qEv/Fyv6KQRJVzxlDF+P8qeifutF377xMAe7+owZpyMlhcTC5mwUmgoamoX09uGCO9XpfHDkx008VK2jpghSeGhJlUP4yRAVixJq9wAHx8ouHoJ/ryGeOvqvhzgITYMV43cZAGQPe+OkSj1489r1FdR8RLOuEj2qKZlP6UaywZGYCazdvZrPBEfFmk7uftWc+b+vA55ChlO/BmkY8PMrCTC7+V7LVldX/xi9Z8WIEKWgmRDC8ldIw/azJaoVTr80brBgYsN1R2r58X+XutlLeCqZbq180Y26sI4PcgAg99TG9X2X7M7NvbV38fx6VTxZPHedJcePI3SOqoOxH1bg/xbh0Whw95t4amVeKBOsok+bJpEGAIj94cuwKzUb79MjL2HDm/4shnS1tnWIE6RYO13B/0ooHZpO6NK68SU9nm43t9cIU0i1Owz6MQ+A/nTNk96OPQ5+tPd09EofPk5oJT4iCf43ugblWuyNjs3FsyHmzvPBCsm52+L7SQYg4WGbihXcPco7O6j5f5SkdPNUC5KKq5+kGPFMMUU1HtvXRyjPDd70w+mouIT4Dz559c16jXx1gv9naCpcnTdob78tezr28Oq16h6eRVnfNxnVtLzQ+DYYuG5W9wu3ExMuHvnlw3nlZoS1quwX4OPjElLxxbJvjPAS/Lck5zU/3c2AVdaWw3hmmVKPPHx+RC+loND5N5zRrnOfD65FxaUnXfrx7tKlu29EZZuQuXXbmwObVqwYur5ah9fmvnHozynVzrkLUuHsyWJJ/iN+v5sLGcm4uPXEvJlhlT0FKRR+4VcmbVp4bHdylgH5ctJjYtKz9bDKix9UX+gO3f+OhUiSkHSuVWa3PpwGGdKnR37QZ8nBcdVbBXpIFDrfOmFX1v255PNvLyy6e+3SrsSkpKSUyLMPjrX9qWa7d8J9hBT0ne7RPO0V0qzlGycG/TTo/IMkPWTNkJn82wc/rO5c483j1as4+pd39/D08vFzqvPZ8AatejkFeikku/WNp49jxYH9R//xyvj4OCNkr4jcrISLtx9cv7x6x6GD80fWa/6ZU+XadRoFhYdV/+J473JDft226vKxI5FR2UaU+nv67Nh9kfGXbu1LTEjPzM4zmFCqVKlSpUqVKlWqVKlnTqlSpUolH31gxP9r8dt/xLMh6n+xd9dhbWTvAsffdmGxyDsRrAbU3d3d25W6u7e7dXd3d3d3d3c37EIN+JVi9ZBAQ27yzBkyM2QyrEX69PNv/Bs750TOoPtS1ztgW2+2BMnyJ8J3QBtSXomIPcCWUi//IkPEQeD00sZO80CTRmA7houH3dFkEjg53a+NApCWBWxFn7ipDIUm2BAcgV6jNUCmpOk4W6rHlWodSCFxA2zj7cZurhQSx8ERFC0fNmxS/W91b48/3bvT2Ju31jx8uObWrZs7xo5dcfVUxISNay9du1f/3PGOjYYN7TNzwzEgNOcKStHsBNiCpvYiNe9C7a8wGlFymZfa09fH388vR2Bgdj8/P3//XD6+3mqJVEZ+T0A7A0R9FbJtBVvYqUK2ouAIyuNfID0LRHfk2A82YJiGHGfAEVxs6o6ZFvgAiM3kBZBGHQBbGNvHnUKzXeAQUk4dkiALpZR4m0i8VDKlnEK2CheAkfJhSg5kyNuBTSR36u6K6baAg/hUPxDT5RkysfIzozuVb5+dPnv7gvM3urV1kyOtWhKYpe19goRiINiIYWwYhUQNcBgLcyGjsYXAuzuSwndTgK1yABOwBdjMy5ZI9AWHoW+ChPwbWGA4+xua1DQARwmkKSeC7dSVIG0QOI7TPkIBiRa+aNQPuJ55kICXwHbiKjpgwLfVRQLq6qFRCeC6EEQChoDtpIQirTY4Dl1/kYDwISsiTgWu5LZ2CAhHHDCgIadYwLSViLgcuPSD7fAUhiYOGBCaigWE9/6IO/ndG9jhTQRKOGLAn0QDaleqPEIEHrjKUmBDWZA2yLkCwue9CckCARUt7BGwr1MFJAQCzoJ/5EfAa/YIWOM7CjgQ/pEfAbfbI+DW7yegfKE9Am75jgJ+c8KAPwKe/44CNrdHwHNOElAzcNDYNOsBqXb2CLjLSQIekKLLCpGAS8CiHwFJJO8IkYD37BFwp3METCqL6PJIJGAVewQ84xwBw10QV38WCXgQrEpKXNV33+EBjRo2//AJrNIkTq+xqVG/AddHnDh4OfGt3lrAosBI1hocN+BaKeKMVOsB8QAIi7qdpXw2FYUmihwzZwknTLt4Yhw5phElcaveun5wJgK2Cgsb2X103/XbJ9Y9u/dYwoTxEXeM3l9wiICp3RBxJYgEXA8CDK8bV/NGNsmwWLAsfpMLhTxU23eCARsDMYocV66UqaRSL4la7W2k/vOFHQJSc8gN12s/fX7xMvr0cA9EnCQWcAFY9rpjGTnyUEe+giURheSYkc9VwYAngJiKFvl0skNAvN/w+KRNowbknBFWblGR3wI8KDSqIRZwDljyrmglit6q737uwl7IkB4AC1a50HnVhQvkrZ7Hk0LBdQom4Ekggof/WUuNGVR9afOAAqglfydg2uXyCjShZs6Nehv+tGkuJI5+hAx+rYQmpbdVfvTi45vIiI4VyeOxh9WAhDb+2FAZMijvzuNqdij6EBwloHKiWMD5kEHK1uxIa/sSTFJnF0aa72ng0/RitgFjBG+jg89IFQq4HNhi8yNNUm3I+PhkAxCOEFB6VizgfuAz7FIjze0UEPfUgkff64lG6hAw07dwQaMisUIBjwNb72xoou4TEgWEXQL6Bz15UqFSHtdsfr5ezHdTJZfFAs4DvrEBSExJA0ITirSOwHcYTZ7EAdvTrIiYq5NQwNHAEr4UjRTFS2kA7BrwxKvY2Lj4yPDHt67eHtiwqhyN1BFiAesD3z0KaYsfQrq+SDsMPDHV6GfwR+Co4olIrRcKWBLMxpZFI/dNsQ42kH4+1NTB+45YwNrAd4m8pnsuALNnZEhYD3giy6DJb8HAoWtEBqFiAfcGoVH+VXqHm4k8r4aIatGAg4Avsgia5DivA7OLbmiCA4DnMX2A9BpwBf/p90TwEdgQiNSDAYgoL/bYEady31SIkvFiAftCBsdaBgQUORKhB5ZwVzTBycCzmbxirg4HrlcP4gxCAYcATTPaFxFlw96BIwZ8VxXRK0EsYA3IKCY6+l0qgKWAh4HneSWklTulz/RqDJkfxQ5QIaK0RBI4ZEDojqh6KhZwC2TK42xo+ad1mpZIBI65aPhLAR/OlCOiV89kcNCAE2WoLCUW8DxkygMytp5iKQpBlR6+W5+pgDcAwJBQEE02JDvuemAZVIWIBTwHmfIrmc2NAb737uxNrAac+pKJgFMBtPvJY7qO1mEDpi0ZXPKNWMBdkCk1FGiCJYBP1w/ZcjVrESUasCO86q5Gms8xRwxI6AHEAu4Ecakvz1v5dWxkOeTwOnrglUjA8vPaKpAR9tGZPxfGMyLH+7h7Vs9enZVI7IOMHneh+DsJVPlsNSAlZx/7nFMHLArCkhOXDGiTXYksHcGCuOu+yKWa+SxNOCCPSydnDtgYBGhvngkLUCBPT7AkZe1RJXIFNtZYD+iVvwyFtGJRThzwBFj0ZtYM8qNOyrNC/zE9q4n8wP1VjYK82KrDSVYCUvebv/21FtKUxw3OG/AkWPC5SlmyF2u2rudOXUkBaOXPTMKEPC9aUIlsyql6wYDqlZEAUFuGtMAE5w243MJhp0NVaKLIvXyNljuVKwnCrtQvL0EWv8pCAWWjU8DoYygSqyOdNuBx4EuZR7ZEClh+BRjrsnKOLuDj7GKeaFZTJxCwLBme3nFDouknZw04GnhSG5OlvyKVDZAumkQ9AdZ9ehrqhQzXzQIBpwDNMFWONOkug5MGLAk838iQ5OcIS4sJRUFM0sEgJGSzBQL2BCK2JRI5Qpw0YEPgCi6ItG3AdtEt8xOXhzMppDUWCLgJGOPdkOjcCezjyD8LOAS4apMnlfd4bpRAy4s3F4rO0gJfZFmkZREIuA8YhpNKJAq9BntI2/DPAk4CDn17pOVYA2xrclj+gcJJVO+HDJhdnscIBOwO6T73QkZoPNhB8rh/FnATcGjKIc1nBbDd8rO4/mpogFhpDfC9rGR52D0KaU3A7EEQEtTgOLC9uCDM9NfFubecNgw4PjEBlS2AbYe/xSel/ndE/P0j8ETdRxN5FYHX66bAUsofCerQBbC5Zx5InIe/IKUY0gpFAZuuKxI/6YHlIJk05H5typYUw2xnfQgRFde/AtfzzmiSYwdwfAlDWv8UMNM3VCJB9XkEtrYPGXU+QeZdCUKa+prlZxm6X4J0MfdKI43Kd+Pctg3Vik8gAdujkapfHHCESNDk7ifg+L8ySKv1ElhiGmC6QqcMYFMf8iBDUjIKMm29DImgy2nAUkqFhOvWeD0A6KPGnmspQZ5+nFcC+dGnyWD2qDyaeM8GrvoKpCm3AltkeUyXtXEs2NCDtmimKt5wY3SUDsQlh5TBdIH9jsV/AUZsPmTInrQfs+3wobx+cuRTLAfaMqR59LkX/ckARqlxA9tQaNLtC7DpEiohw+3kA/YWS707YzplvhNz/xf/Lhn+c9rds/dVQg5K+nPerk3Iirqgd/PCfJFN3fnPes2/Aq2KBDOgAgbnpdDMI8tnoDVBhtJ1z5HhPXs06lWRjGHuxgNL3P462dFM7ra65rZ5N5mI093QjPItXali6Gn4rw0PVFJoCdUkDayIvavAjFT7gZZ8XYlc8go9dqeGL0WGYvXEFCCOowDZ0JfA8rqlAjOgfq4LNMMcD+SZAv+1AijkrhaseO+JltwAImafB6dE7sb/MwDAmoIkZ9CZWEi35q7FbSGpxec+A1sNtKiEeQlDglzD4b82Ok/h/HvqHOnQfVPDkiWH9ChxuOmG0KNVg8rUCr0M1jyq6u9W+smiPXc3TOvWodH1RpN/atBsaZsZD4GhC/nFg6I7eOX5vV0c0FoVl6HCv9z5SGDTtDrZrIKPkuI8BVeXfG0Ajm9eSMlV3v5uLrUK5ivbNiw0NGxPm4oVrwFD21NCf13fy9PdLatL55qP4b+mjb4Y+1VnADP9l6RXL9cFfwKrDK9P74h+/uarVm8AWppOE5UMLB/XXv+lesE2zUosfKyFdM/n7Dsf8REy0AZXrt2kWFUXH6lSKXV/UqzHsRfAF9N8RI9d94x7IG4Ojnsbo/mi1X75GhV/RQfpNHO6tq2ZpfH8Fnvff3i4OfIL/H97cCAAAAAAIMjfeoINKgAA4AAAEPj9LBQATvTZAAAAAElFTkSuQmCC;" vertex="1" parent="UzyxxTVXNqjpSGp4Ei8d-20">
          <mxGeometry x="10.395238095238096" y="38.22222222222222" width="51.44761904761905" height="51.44761904761905" as="geometry" />
        </mxCell>
        <mxCell id="UzyxxTVXNqjpSGp4Ei8d-14" value="" style="shape=image;imageAspect=0;aspect=fixed;verticalLabelPosition=bottom;verticalAlign=top;image=data:image/png,iVBORw0KGgoAAAANSUhEUgAAAgAAAAIACAYAAAD0eNT6AAAAGXRFWHRTb2Z0d2FyZQBBZG9iZSBJbWFnZVJlYWR5ccllPAAAA2ZpVFh0WE1MOmNvbS5hZG9iZS54bXAAAAAAADw/eHBhY2tldCBiZWdpbj0i77u/IiBpZD0iVzVNME1wQ2VoaUh6cmVTek5UY3prYzlkIj8+IDx4OnhtcG1ldGEgeG1sbnM6eD0iYWRvYmU6bnM6bWV0YS8iIHg6eG1wdGs9IkFkb2JlIFhNUCBDb3JlIDUuMy1jMDExIDY2LjE0NTY2MSwgMjAxMi8wMi8wNi0xNDo1NjoyNyAgICAgICAgIj4gPHJkZjpSREYgeG1sbnM6cmRmPSJodHRwOi8vd3d3LnczLm9yZy8xOTk5LzAyLzIyLXJkZi1zeW50YXgtbnMjIj4gPHJkZjpEZXNjcmlwdGlvbiByZGY6YWJvdXQ9IiIgeG1sbnM6eG1wTU09Imh0dHA6Ly9ucy5hZG9iZS5jb20veGFwLzEuMC9tbS8iIHhtbG5zOnN0UmVmPSJodHRwOi8vbnMuYWRvYmUuY29tL3hhcC8xLjAvc1R5cGUvUmVzb3VyY2VSZWYjIiB4bWxuczp4bXA9Imh0dHA6Ly9ucy5hZG9iZS5jb20veGFwLzEuMC8iIHhtcE1NOk9yaWdpbmFsRG9jdW1lbnRJRD0ieG1wLmRpZDpBMkY0NkY1MTAxNTlFRDExOTU0N0UwNzRENTQ1RDg3MSIgeG1wTU06RG9jdW1lbnRJRD0ieG1wLmRpZDpFNjYyMkRBRTU5MjgxMUVEOUIwMTk3M0FDOEI3MEFFNCIgeG1wTU06SW5zdGFuY2VJRD0ieG1wLmlpZDpFNjYyMkRBRDU5MjgxMUVEOUIwMTk3M0FDOEI3MEFFNCIgeG1wOkNyZWF0b3JUb29sPSJBZG9iZSBQaG90b3Nob3AgQ1M2IChXaW5kb3dzKSI+IDx4bXBNTTpEZXJpdmVkRnJvbSBzdFJlZjppbnN0YW5jZUlEPSJ4bXAuaWlkOkEyRjQ2RjUxMDE1OUVEMTE5NTQ3RTA3NEQ1NDVEODcxIiBzdFJlZjpkb2N1bWVudElEPSJ4bXAuZGlkOkEyRjQ2RjUxMDE1OUVEMTE5NTQ3RTA3NEQ1NDVEODcxIi8+IDwvcmRmOkRlc2NyaXB0aW9uPiA8L3JkZjpSREY+IDwveDp4bXBtZXRhPiA8P3hwYWNrZXQgZW5kPSJyIj8+Pr6I8gAAmfVJREFUeNrsvQm8JFdVP3769Zs1ySwJWWeyb2QhIQlkD4QAwRAgYICEEAiCLC6ggoL+wD+ooAjKXzQBQX6IICACAioBQYiCgLJDkCUEsmcyWWaf9+ZtfX/ndvV700vVveece29Vdff5zudMv67equpW3e85556lYYwBhUKhUCgU44UJPQUKhUKhUKgCoFAoFAqFQhUAhUKhUCgUqgAoFAqFQqFQBUChUCgUCoUqAAqFQqFQKFQBUCgUCoVCoQqAQqFQKBQKVQAUCoVCoVCoAqBQKBQKhUIVAIVCoVAoFCkxqadAMU74wv/eBx/+6u2wankTsi4YXb0wcttimOKXCj5Y2F7DeDfYTcvxv2X4Fz7CGnzHeshkDco++Po++LgvvmdNZ9tqfM8qfFwJ9tGYxb+XtRX8BtgDbeDfTXxfY+D3DSx0dsTKAv43h48zKHtw0wxu3ZP9Dbs6shO328epthjYjo9WtuH2rfi4G49/Hh9nof1d+AVzC3DG0Q+DVz71kXoBKhSqACgU1WDLrln44b3bYd8VkzIFwPiZvWVyX7NEvBYf9+sQ+gYD5mB8tLIO5SB8/RB8/4Gd1y2Jr+iQ+4rO57u4utH7C8bk7Fxjabsp0kgKD98U6Ce5H5jNlAZjFYcZ02orEA+g3I/bNreMeej+7dPbb9m03W7bhJ+7O1MazM5MoWh/vuck+1qUGaemlb1m8sbI9I2qtxea6VLqDAxeMgYIGmIPpmbn4fJHHQPPe9zJekMqVAFQKMpCc6IBKyYnYDlKAgXAWu0HIVk8DB8PRTkRXzseHw9sE72Bwzp/r0LiWJ5nkHf/QL4eYfJ/uYgMjYP88zmtUAEwgxu6jtseD+zXdQjHdL9pZn4Bbr7jocWvne14GHADbEa5D+VBfOE2fLwFt9+F79nSUSK29Z+XGApAK/cYTc5PxVcAdk3PwulHHag3o0IVAIViCGHJbmOH5A5HOSUjezgUieLQjlXfLHISmHzTulzyd+o9Hss4f+f6dqP3CyYaVvFqLr6yqDDYJYyj844R/9/R9hZkHoN7cMsP8e+fdrbdZqziYMx8XA9AOQrA/MIkTDY1/EqhCoBCUXdYkjoC5REox6Gc2SF7a8I9jEqAThjK+/nkz/oeD/kbzvF4HQ7ufTN7z/safHJi35tszML9He+AVQq+g/IDlO91PAkLeskqFKoAKBQSbOxY9OejnIpyOsohkAXgBZFfLpEaDym7lAMP+Rs3C3uVg9x9Flj/XpXIFKgG+Z4PG8xovSxWTkO5urP9wY5C8DWUm1C+1dmmUChUAVAo8IKfaPRv2tCx7i/pWPc2VP2AAerzBP/lEiB9DZ1F/iYS+QcE/dHJ32f5G8mx575m4y4e0xZjXoOv3oF/fxnln1G+BFmsgUKhUAVAURUsWdy9ZQrmWzYMqxHyTaJP3b9zpjnRaFjCvwDlyR3CP8yZoichf6CSv+EToPTMuMg/heVPdjgYoKyeGMpZ2LtDR3bkWpQ7Uf4N5cMdpWBe70SFQhUARcmYXWjB6z72fdi8fQ9MNgMUAEOig8V32Oiz0/GNT0ad4/JVy5und9Lr/IQjJX9f0J+X/F18GTPoj+CtkMY2uEjb8LZ7j929hzaG48X4wovx8b9R/g7lY6BLBApVABSKkYW1AJ+K8kyc/M+FLJ++1x1tSPZ6XPKPHfFvjNOOL93tP/DVhmn5cwMbWefgXPwTrwXzu/j333bkTr1VFKoAKBQloNHYK4lwEcovoTylXVinq26O35h1rftzyd/vVoiS7icl/3DnC5/8gU/+3px/2Tk4Ep+8AR9fhvIelHei3Kt3p2KcoMmoilFSZp+O8jmU/8wUgA75e0iBzt5cy98d9BfF+vUV+mEwpoEIrn9aCT/yh0m/yl766NluMzxeB9nSwCsB2qWWFQpVABSKYXAooFwBWerXJ1CemG0bnPyNh/wN+Nf9DZ9XcwmeavlTIv4LiY/p+veE5Ld/jhfxbxhf74j4Z1X8Y5F/9/sPx81/DlnGwFP0tlKoAqBQ1Bs2V/8zKJ9EuZBtrfLMVjZh8n6Huc/GkD8VK+IfSN/je3uSiH/+eBVvt6mgNnXwfZBVeVQoVAFQKGoEm6f//6N8EafuJznM0EGLtGBd3xQYrcFBfzluBVauf4p1f0HEf5lBf2ER/4Mlf91Bn7njb71K10G2lPRsvd0UqgAoFPWAJXzrpv1N04nq9xvmhmhtJiB/8JG/wBdQcrpf7cjfuM4B3wHgGH/bp+AjKNdDVppYoVAFQKGoADaX//U48f8LyslsAkwR8U9Cyd393IfL32cC+QOB/HmM7F+SibTuTx3/X4OskNAj9DZUqAKgUJQLW+b1oyhvQFmW7/YVTv4hbn+z95tMhIj/4EI/zNa+ZtBPztZtBlzsBcfoW/bwBjyKvR/Rxt/WkbAZJlfo7ahQBUChKAfWDXsjyjOobl+W5ScBudAPPegvqLufIbA0bTeAW+aX4loIbm6Uivz5sCmD/4jyq3pbKlQBUCjSwrbf/VeUR1MJkDL5u3kr0PUvaPBDJX9Kljy70l8A+bsb/BhgRfwTyJ98wqnbZeO/HOUGlDfq7akYdmglQEVdYeu32/S+k/nFbiRrvkWTv6vKH8PtLbV+fcdeaXc/cJB/vOZG/HPgVv54tR4Kx/+1+P+++OdvAYQ5lBQK9QAoFHuxH8oHUE4RTf5RLT+Gqe83c3nWr9cqrpr8OYV+HLtvJLn+IBp/SoMnGtrv/w2Ut0NYW0uFQhUAhaILdlJ9jJgAfbneZPKP3eCHTzmxavxHSfeDstP9hE2Oyk33fDnKn+otq1AFQKEIxwsha+QDxTYzd90fSuju5yOj6tL9olQLjNjgJ7C1r2NvTQkNnnLPze/gf6/am1tB+6dQqAKgUOzF8UvWlDHizvP0yZ/3tW7yZ77mIX/nzrgW4E2h78NtKpMzBfzeD9K4hEb8G/r4A3v8Rcrfm1Gu0ltYoQqAQiHDH4PN+WfkuxsPKbgtP2KTGydP9GbCGwL5U9b96SVu870ifgKUNvgpJv+YEf9Utz9l/A17/EEy/pP4/7ugnbHStdklCoUqAApFG5ehXElN9wpz+7oMUW6ZXwlnhJE/1dAup8GPK+Lf8E+ZZPwDLP/I478W5f9C1qtCoVAFQKEgwOZWvxZn4waPAMMj/sMmf1+DHwYB+rr7lR3xP/DV5UX8s8c/IOgzwfjbcsFvI6iBCoUqAAoF4lKc/C8onPyL3P6Bk3+6Bj/M7n5O4qsg4r/nZw1UG/FvmApHLcb/+SjXqv9fUXdoISBF1WjgTPyrzsmfaUgFTv6b8P+7Ubbj5L8AWY63LfhyKL5mixM1y0v3g2q6+5H2h9b4J2Zr3wHaTTP+geS/BBsUaNsJ36W3uEIVAIWie/Y1LZS2A+p0lMfTCdC1Hm4k6X722dfAdnszcBM+3o5ilYD5vi84CNrVCc05+PgLKJegrPbRWHCDH3AerkCj8LMwO9dfeuzec+Agf4g2/jTyJ2t5S39sQHkjPrsu1tAoFKoAKEYNzzJZDACfAGmmsmPyh4+jvAPlSzmE34/7O/JNlBvwa07FxxdDVrNgv5Aa/2Qi9Vi/sWr8+0iWYXKH1fiP2uOBowMxCz0Vj9s1kFW0/He9zRV1hMYAKKrECpwkn8Ke/FnpXrlc8z18djnKM/HvLxLIPw8/gKwU7IX4m5+SWv78iH9Pa18HkfvIv7C1bx8B0mMe/J4gQ1BwqBkflBr/vT0eiO2QfXpS8Q9P4g/+AcqypR+30tI4AIUqAIoxRVco1CPx4SSvhenZTm3w08F7IXPf3xjpcL6P8nSUV6PM0naZXuiHEvFPseLplj/DuPb2NzBe8ueMM9/zQzi4gboCtNgG3290nZrzUZ6pd71CFQCFohePQVnmJ0BCGiAt6Ov/Q3kRypYEx/JWlKuhHTzoJ0B2tHvKiH8IqfHP0yVkClDCjA+mksHrcLj016tQVurtrlAFQKHYi0t41mbQ5P/7KH+U+Hg+0Vn33c2zfInknzzin0iMtUj38ykcFTd46v3RsyB3qUuhUAVAMZ44EJbc/0X57q4St6zJ/z0ob0x9QCZb470R5ZV08vc5M0xBKn4JhX7M3l/ylTgO7+4HzPFP2ODHUMmfdQ5e3C501R0LoFCoAqAYUxyDcrjM8mdN/t9B+e2Sj+3dHaWDQP6SQj8UZcT3BpqFTyE++o/Gau2buLsfRCd/u/2x+P+jtBSQQhUAhQIaJ2XXX0BrX7+xOQfZ+uv2tJZ/K7P+e/E6lDvcxEigAUGDH++X+Br8MLcHN/gBzvhLezxQB5NP/t4fzbbbjJer9b5XqAKgULQLACWP+P8oyk1Jj6KYaTaDrQYnXfNOWeMfQhr88L0R/PbGUoUpVo1/3m8wGjw9FWzNCIVCFQDF+MJOh63DJTX+i18byPW2KXl/4fBAdETov7C/1Wq1pWddt1f+Ht92C6+1b0LyJ9f4Z7b2lQb9hfR4SLHuDz7rn0v+A99zHMq5ev8rVAFQjDNWQNf6vyFahKTiMnvxJXzzN+M3Zc+UhlbLtN3+nm/fhfIhgQlekeWfQ42+NW+CsUz3G9S5wRPwyD//l/DiMU/SCACFKgCKcXYArEHZyGEoQbrXP0GSmdYg+bfa6/5E/AvKniLrvrR0P2KNf8rZp0f8c1IeTezxj0z+TAWoOOPjIsgtfa1QqAKgGA/sg7K2d/L3BH3x3L6WcL+SYscz8mfpFTej/FRO/v4nxlekjtHgZ7BSroT86U4OcsR/Crc/BJK/rMHTqShHqxNAoQqAYlxxgLWCWJM/z/K7dS/pMuAJC2i1Frjkb2EzEb4uJ38fm9JtZX6hH+CTv5NqZTX+CcY2T9Ho2Vgi+WewHSRP1ylAoQqAYlxxoIHGshiTfwFsD/bpqJb/wnzH7W8k8mMZb/sDIpM0+IFCkzss3U/a2pdc498AObOApCdF7u649+HR6gBQ1AHaDlhROkzmAQBZgxfjmHOXntwTtION3p8RWv7duD8o3U9I/lSFIzjanWOKExUcKvkbUq8f5rq/0w1CSvfzHeNxOgsoVAFQjCvWZjNiIyji37HuuzWWprKAln+Esq07PDZlMfmnqPGfsMFPeNAfu8ETRaOhn50ABYgR82AVABsHs1unAkWV0CUARRU+gH3zLd9o6V6tGHtpLf9INdtNoeVfYcR/lDVvJ/mDiPyTpvuFNPgpOnZ+medD8NkanQcUqgAoxhGrE6d7BVVbMx3Lv73m34hyvPuUZvlHJH8IIn9XgycP+YePf3kR/wCSHg/W+t9fpwFF1dAlAEXJxn9bljkn//B0r8NCdnEhx/IP9AMcMPBNLsuf7lRwbApr7bvXEpc2+AF5a98U6X6Javzz2zW1X7N1AB6mk4FCFQDFOKKZePLf2Lm257k71los7duHRpgScCyZ/CW5/gNfLYn451m9XgKUpvuRxx9o5B9a6EcS8e8PY2j2KoUKRTXQJQBFFWhEm/zzYYOsjmKT/8JCVtvfv9PcYz0nxJVgiClthRHvzAY/VPLnEaBhdjb0jb9xqRFB3hRqrj9Zkco/B6t1GlCoAqAYYw+Az1Qqsvy9rt91KI9iUcBCcKqfy/o/KaTBj4/4qHpFnPr2EgJ0H4vxkD9PaeBa/7J0P48LhjJCWg5YoQqAYlw9AKao2iyN0npqvpg81+/TqXV6DL+8Lwe2+ctaJ/kbSNzdzxQQn6TBj8ftbwootyDXPzDds9j6F5C/AVZrXyf5EzI+dPlVoQqAYjxBzag2hv6pHOI91sf+NtJfTv5e7QIneXNt/idNlGNnd/fzvp3siok12BHOgTTiP+Kh+Mo8RzgrCoUqAIoRoP4iy5c4+dNyve0ywMuce2FMoOXvjQq4DOz6f51y/aUNfgr3xJXuV1TrIUKDH+Mg/7Jr/Id0d1QoVAFQjJUK0Aiw/Hi53i+G9vp7CvL3KgGrUF6PP9bgkj+Fhanr677t4RH/IE/3SzH+tSF/UPJXqAKgUAzwpYFgByhx8l+L8laUZo9jvlO9LTFeiT92Ft0rAjTrn+AZqHPEPyXjg3/GOF8RucEPTUtTKFQBUCiKZ26zNN+awab07kZvbp68HJ+8eumLTSmz8hPwN1/nVFpIfMNI9ysif0ekXbKIfzb59x4/bfxNwbEXhEQKI/6dxx7S4EmVA4UqAAoFT2kwnmj3gs/+AcrVJe3tqfibf4uPK2mTP6+7Hz8ITWa/dhMgEAjQ/a1MP7l3D5mtfSUKECPdT8lfoQqAQhHI7iYoVNvZ2tWWHn5vCUrAI1E+CVklwoTkX16DHzoBxm7w41IAuePPVIBC0v1AyV+hCoBCQZ6GBz3zSbq72aC8D6C8BmK1+OmFrTtwI8qxUcnfR29dru/03f245A9C8o89/ibf8mc1+BHl+scJ+lQoVAFQjAYangkwZqGXga2T+OzN+PgJlJMjHdCBKH+G8jGUQwun+KTpfvE623npiWX5m3p29/MoP7Fy/ZX8FaoAKBT5Zls1k3/2o1fg/19G+RPI+gZIYJu5/Dp+2Vfw8VWdBi99+2xkxEchDW+hH3nEPzvlbUi6+3lpV9TgxxC/XMlfUT9oOUpFdWqAtNJdnFxv24/9d1FeivJplBtRvoayGWU651eXdUj/DJRLUZ6BcqTHMKdxO9fy935xWMQ/nQA9Ef9R3P7+w65frr9EMVAoVAFQjK06UGRUMSK+ffSaP/mvx+22XK+VbSi3ofwMZStk7YStl2w/S/b46ePx8SAgEKDXVDasM1JI8iwngpT8/T4XoPhruPtlPJ4P9rcboVek8FsNsyBBYdcGhUIVAMUYwFcIyOv2Np63ywq9dF5d17HwzxB0dxukv4CIfwqjk/PcfSQnKfTjc3UEKkbGeewm1fgXaaFRx1/ZX6EKgGJsjX1DIAVDsPzJcVWG2nqoePJn13gPjvh3EyC9tS9NMTCEs0Ih/1iu/xjkz7gkKxp/hUIVAMU4awMs8pdEfLsVA3HEd/IGP0Tyd+8liRSjpvtBOPnH6u7nVYBKHn+FQhUAhWJpYmxEmvxNxMnfRJz8gUb+FRb6CW/wE9fyjx/xb5jHbkpS/lQxUKgCoFDLP8LkT1IVaOTPNJf5lp+R7TM3GE6c68+N+B/C7n4AgvGXK3/sa0yhKAlaB0BREz2AGcIekO5FneApNd5Jh+k5Dre12mdle05QcLofczu/u5+JM/48lwv92I3X2cG+uHXdX6EeAIWCTf4+uzjN5E9z+7rYwhTsBiPi37XmX5NcfwpTGmkkfArLn6j8hY2/i/hVE1CoAqBQ8me9Tpn8vQRouFHtvv0NdP37Wvs6PQIgJn/K78Rs7Uu7HPzpnsHuFnG6HwgUIMlFr1CUD10CUFSsC0gKvTCnV2nAG7u1q7TBT7H1G6XErYgAjeRMQ7weDzwFkKIA1Wr8VR9QqAdAMc5OAFm6HzPi33goOEGDlzgR/9xUR+NlProhW06ufynpnib3l6odfyV/hXoAFOOKBhAjx1kWE7c0bWDEdzQ1iLDPxv9+ACEBMnetbt395B6LNONvjHzUFQr1AChGGiuWNTvp/3l1AOIHfcVq8FL8WuzWvsx1euN3yUdt8OPwDASRv6n3+Muq/JnCn21OqO2lUAVAMWL4yNdug6/f+gCsWN7Mfb3VMrBtahYmByZA3tpy0OTv/FXCum+wse8mf3KJ2xQR/z4lQkL+vvNo0ow/iMjfRDLRi5d2Vq2YhP/4/u1wx/3bot9/O6abcMEJu+DFj3sAmgv4o419ANZcjY/LdHJSqAKgSItbNu2AL/14M6xekX9pNdDoXzHZbD8WTf7BBCiO+E+07ltM7+5XU0X8R23ww+dC32uxxt+wdqS88Z+caMA9D+2E2zbHUwDs7bQdyf/c43bDFafdAc098wALLYCJ9Vbt1olJoQqAIj2WT07AKrT+VxV4AEIn/5jd3UqJ+Pal+xme5U8zloWFfgzH8iecA98aumvpx5fu6VF86jn+e/+ebE60JSb5X3LKLrj+unth7Qq89+Zwam8soCzXSUlRCF2IUlSDOnZ3K2HyJxnXxkd8wta+ub8Z3tpX5Po3lKNyKECGW+Mf6pfxEdXyt+R/J5I/kv5cQ+cXhXoAFEOjBcRxfVfa3Y1Z41/S2pdw/HKFY3BD0gY/AuWPQqRlNvgJGv9Y5D+F5H/87i7yV5tOoQqAompeZ6TtRSl2U3bEt2+njKDBj88+rVmDH4p2wQ76kypAJTd4Ch7/QH1g0PJvKfkrVAFQ1IX9DfndZPI36Vv7kvY5UrofK89dbPkbhtu/b79GOt2PO/7SKn9xKl0Wkv8L1PJXqAKgGFJVIZgAiZM/zfIrJjPyhC2pCy/tbyC2/CF5g59Y5E8Zf/5ASBo88S5qdo8HKvk3Mrf/Ocft7pC/Wv4KVQAUI6EJRG7wAw7rT9jgJ0nEP3kLUwFiKUYmhnEaVzEijj8/6BNKGH9gjj/N8t82laX63bDk9teAP4Ucqjoqqrf+JQQYku7lpr+EDX6Kvt5x7CZBxD+bnasO+hPoFZU3eCL2eGCQ/2Kef9vyX6nR/gr1AChqSOyECIDJGASYJOJfas4aZkU9Eu+WHPHvMZXTuv6Z428SNfghDUWk8aeSf8ft3yZ/tPzX6Zq/QhUARR3RnCBZJQ+g3I2z4Vzh5M92+xIn/+Aa72mD/miWPwi8H0s7acvC2eowG6DjAUxG/kHd/STpnvUefymmZibgvON3wV9dd5eSv0IVgFHAx79xF3zn9i2wfNkEy9gML91KyEwOSOO6dfPOrOGPG3+B8p6MjGItOFfUhs2E/IC8tq6R/45VAI5C+SxuPyBpjX8p+XtM8SQNnqTHHtTjwY+5hQYcsO88vO2au2GddfvPKvkrVAEYevzwnu3whR9uhtWFJXNNkAKQtIiLWeSRwV1YPtls1zr3zG+7OqKoBGZ14QByCJBZ45/8pqgR/4PKgd/6l6hx4T0e+mF9adNI+L988YNw4Po5gKmmXroKVQBGAbZm/mpnzfy6KwAThUaQ6er0q6gd+dv/lvE902GFfnw1/svs8WBC0x0Hfja8x0OR9X/oulm46tytADNq+SviQ68qRSKeMaT8dUWZ1G96AzRZCiJfTyjeFLm7HzPin7Lz4eQPQeRvsRut/yvP3gaHHDALsKAatUIVAIUqAgrRMFDc92UE/cmKHdWmwQ95f0xQeIi1/jesm4PnWOtf1/0VqgAohp2AFkVR8nlvmd78zGEh/47yKIr4NxA/4t8AIeLfALvMcx8W1/6t9X/w/mj9z6v1r0gDjQFQlO4RGLRG65nat/chvJ4/JbWNdw6k9fw55A808gcK+TOsaN/hUSL+Xb9lmMfuP0JC3QW64jvbXvvvWP+a8qdQD4BCoUikkTmUIkMj/xQNfkDS48EAqcwz6ZwYx89yCz2Zwl/Ic8xMofX/TLT+DzpArX+FegAUCkVFSgGN/IXWb4TWvoa0P1yPENl9kKsAsfe5C3ML0I78f845GvmvUA+AQqEo3foPUBioBCjN9WdH/JfR4ImmJwx4PnLEVv1bsv418l+hHgCFQhGZ9FvFfFtx0B/ES/eLG/HPzfXP3UunpjXXWfu/+txtESP/UYloLNPLXqEKwJhhoiONzqOG3ysWeWi511qvDfmDn/whEfmbkGZLzBLHiNn5BjznvG1wyP5zANMDCoBl8Wa38kYif5hHzeL24iEPv5ZaHTHhXxXzfdyfx0OY3B9nyjWqACiGYtzwaoWDUI6BrLa7fX5AR9ai7IuyovNeHWdF9wxqr4v16Vr7yqbtOmaBFPxA/tmRxjx0PjE5YeD843cDLOS+5f+gPNs6Clg2QGsKYMv1qa6l2c7+4I/AVpSHUDZ35Kcot3S27fZrUSbn3Jk+ZbI/yNNANIWghbu47nk4az5RFQBF7XAIyrEoj0Y5FeUElBPx2rfq6sp8S8szaZfd3Y0wAYJncq91d7eg7n5C13fZZaBDLH+P9T/W49/13rniqP8jUU6WTR+VxBLYw9mJcgfKt1G+ifJllB91FIeaYQLGsX65KgD1HZfTUR6LcgnKaSiHs/K/Y0/+ZMuPX+Od7/aFSJO/z+AkWn4QZ/KnE6ARWNrxx5+1udLx59FWFeNPwJz8o5UQm/1Ra6A8oiPXdYj/+yj/hvLJjlJQE4xnwKUqAPWBXd97FMpTUS5rW/pm78IdhUKS9XXPse6iTICuiG+m5Sc3UoBqXjstRonbV0aAJlLxH9KVVIvx578uuP6rGv/xwvLOHGfl1R2PwPtR/qnjLVCoAjAmbD+xpHFuQHk6ynMgc/EvLw4gCpv8aVXepDwZy/JnlWPremrkyo/P8uub5Mlr3l5vA7fMrXT8TcFQEJWpise/lIj/KsZ/bJF1pITMu4lirDLwzo4ysEPPjyoA0XDnQ1Nwz9apbsKtBR7Ysef0iYnGi/DPZ0G2xu+ZlAnOXVYFtCIXs6F/OZM4JJ9j53oHW36M/XGme/m1MRPppFU2/lCP8TeRcv2jjn8MV8zokn+/VWJjG/4K5SUob0b5sJ48VQCi4DPfuxfe918/h31X1OZQz8aL/uXLmhNXrpicWMWalIk52+wJEHxV3gzZPtvLfQlyvSHd5M9e9w2Z/I2QlBOOP1mRIpi5Q5Xrn2r81fVPJf/uDTZW4IMoV0GW9fC/es5UAQg7wGYDVi1rwsplzap3xWq5v4MX/dX4uFKeX5xDDREivik3LSvim2UYVhjxDfFqvI9UxH/Ol6dN94MatPYtYfyV/AvOT8+2p+HzC/DxdSh/recuHbQUcHqsQ/lDlP9CeUE++Q82Mak84tvwZ/lYEd8k4yF1xL/vHAQEfQ1FxH/Z6/4hcQgBnFTF+I8f8XPIf+n9tp6JjQt4H8p6PY+qAAwjngFZpOvv44W/nhfxXdTZrK/feEkR/6akyd/k/TJ58id0tqOYs2bvORg4donbm6kAuccfShx/ZpnbUsffFOzT3oBHccR/qvEfd6t/0OUPA0V+el5q/2fTBz8LWe0ThSoAQ4GDUd4FWXrLqW7iMgENRcohf8IPeyd/vtnvcvsH5nv7Grwwt4eRP3f8JeTPPTf1HX/X9cx1H5Q6/mr1e6x+p+flbHxulYBz9dyqAlB32NSWmyCLaPVP/gRSoE3+cRV2zpvSBH0B0y0sDfoqJsBYMQ98AjSRiI+pAA7B+Mdf9y9h/MfV6gef1U8i/8XnR6P8M8rj9RyrAlBXvAbl0ygnkSZ/0zsPki0SU6xxO12fkcu8mkiTv4EqIr7dywKsaHdp0J9g/I1n/CneH9P5Fzr+QeTvdOQkHH9T8viPs9VvfFZ/rsvfpSwciP99BOVxer5VAagTbPOd90GWw7qSTIBFUy474juG5WeAG/ENkSw/ik1VTmvXnLMTEO1exfiLMj6qaO1LOBtDP/7jaPWbqFZ/3rxhgwM/hHKWnndVAOqAo1BuhKzWdTgBlh3xTW6ExuttTuX4ahq8+AmQRFGR0v0o10X68a9Rut8ojP84kj/pdZ/VX/CZ3mjMQ1A+0pl7FaoAVAZbuOIzKOfTJv+iCZAQ8W0gftAf2fJj9jaXBLylmvwHTq270Isv4jtNrr9LKUg4/hA4/nnnoGMBjvX4jw3xd0XwD1j+Hnd+odVvHIPX8/qx+Lf1BKxVGlIFoArYuv3/ivJwul4cEPEdbPkRvoej7wfWeKdN/rFtFGltWv7kH17oSWr5M77HJBh/AMH4w8iN/1hZ/d7ozSCXvwvnobytVzkIEVUAFDTYdJRPoRwRbv3GjPh3WX6GPvlLrR9GiVv/nJIbIQfkgDeAwAYvBZNC9HS/2ONfFFnJYNeA8Tei8TfMdM8aj//YWP3gWO93WP1el3+X1W9I3oQX4t8vU0pSBaAsnI7yMZRDWQTIbNTizvWmW3+sn6W8qaQa76Q9DGntKo34lpI/xBp/YI8/e+knYPwhxfiX3uBHc/39GnqsQD/jURRdywpL18+foJymDgBVAFLjeMiK+2xgE+DAFmmDFwIBkibGiBHfvt2tvMY7FJ6D2BH/dAJM2OCH2fhn9MffpB//sSF/n9XPIX+fl8h4RmFJeVyHf9yAskKXAVQBSIWDUP4R5Zgiyy9O0FfCBi8u8peWOS0M+nL1N+i6eSsJ+jJQbYOfCsdf2uBnWMYfKhj/kSZ+V26/L9DPUHL7we3yL7L6+4MD4UKUVyj5qwKQAstQ3ovyyHSWn8/aSBzxzbXqnMRXd8svUonbVORfxfgbzkhFsPxTVfkzJY//OFj9Rmr1A+0zMqs/j7hfC91F2BSqAETCm1AuD5/8wTH5m4pr/DPTvXwU7GMFl+XHnaAok3/RLzkmf+q6b9TWzpWNv4AARd39DGVUZDxMXPqIPf4jT/5UIl+aRkS5/R7yz0sJHNgvmxL4h0pXqgDExHNQfid88jdAau2aItc/pK979O5u4Hf7krq7MS0/46IZZolj5zkIbO1c2fjLyjyXOf4+i9NZTpnR2pc8/iNJ/MZj9Re48wuXEFm5/eAI9HNkZ/RsuxL/fvLS/nNEYwAUfTgR5e2hBOhzi8Xq7hbd7Rs119+nMXGIj9naVUIKhhWBSbD8TYXjz/NhUMffcK79gPH3vkZs7Vvs+ZK4G0aU+Iutaz9JswP9KO/3Wv3972/gw+uhuyR7jEtOFYCxw3KUG1AOZFk/wJv8QWT5cWu8C6766Ln+3HVfyb1r6K9KAt7EBCht8AR+6zdBjf+g8Yf44x9U45+oJ7DGf+TIv+9kewP9+l9mWP0c8jfAI/+97z8b5SqlMFUAQvAKyGs9yYj4p0z+/AY/RTxQZXc3Hy8lDPozIWvw/IA3UWtfx3WRtsETxfszDuNv4o3/qJM/xYJ3ziEUq5/o8vd5BpzvN69C2UezAFQBkOBUlNfRJ/+iCbCmEf8F3nB5xHcFNd4Hfpab6x0z3Y+qcNRt/GNF/A/R+EPA+I8U8QdE+XMC/ag3TO6gMoIJB19/hHoBVAGQnpM/hf4mE86If1OfBi+koC8H3bPW/Qm53iNP/q7xN9U0+EmR8VGnBj8h4z/2DX4kFf36swK4Lv9+K5uc2++x+r3Kwq+jrFQvgCoAHDwb5ck0fXXIcv19bl/25A9JJn/KHFaF5TcUln/FGR+Vjz9z+/iQfyyrH2ifIa/1R7X6+7edgfIUpTRVAKiwVv8bohBgtAYvRT/LnPx9E6DH8vVN/kymc+9TSI1/h8UYEvGfvsEPr6Wf8fQ3IJ9rAvmLB1cYoBre40Ej/vn3NLd1L0CcQD9mlL8hk/8iXoKfmaClAaoCMO54CWSpf2wCDI/459Z4Z87HARHf9P4G7nOQPOLbOfk7PB9SBUi63QQoQN7xjxjxz/Z8Mcaf6/kodiqEeWLG0fJ3vV5uEx8GkRti2+EBL8fj8K9zlNpUAfDBdvf7rTzLj9wpzVN9jBLxbfJcYT1/mvJq/Kea/KPU+OdafrKIf3aPB8e6fozxzyXS0ns8VDT+kKDG/zgRf+mte6lr/S4iN4TURHAd6yTK85XeVAHw4cXQ3eK38u5ukhueZp8nJX9IPfm7CwFFWfMOGX/gkn/iYk8Sh1HdlD/fEUrTPUfW+qd07yvD6odqrP7B73w6yiEaAKgKQBEORnlp8ARYdne3nC+P1d60zKC/oNa+RWen1O5+0vNdTY1/eY8HqEGuf3iN/7Ehf0MlUAr5u+4DYiXB8Nx+z74XfieSPzxdaU4VgCJYF9FhssnfODXVZJN/QI13WcR/TdO9TGTy93lRJOl+Hs+Qjn954z+66/45bnOvBe9z+XMr+klc/r70PqLVb7z78WyUCfUCqALQj9UoL5BZP8TWrilyvSHA8iuyiFJN/txjp5jXzFx/suUXLeNjyMbfeW5qOP7S7SNL/kKrX1zUJ5bVn6NcBFv9ud9xHj48QvlfFYB+2DzRkxdvhDgNfgInf9L9Hrm1K0ic74a26wb4bzAUPwp9e3DEf/IGP5HGX0qA7IBXxluMgId9489M9xtNy5+0/u22+ktL7zPke96pULDJf+lPWxDoqcr+qgB0o4HyS26bhZsHL8n1dwU1GfZ8LAn6M0SCp6Sv812/TF6RTP4E6zdWxgflh6m57uzxD8j4IBmYhHuAX+zH+KhN7IkZ3aldUtHPf53wAv2kzwNz+zkZDb1LZU9DWaE2ryoAizgF5bF8ApRO/gQCDHb9Mgmwgsk/TpnXMiL+wT3+AUGftN+K2ODHc+zipZ9E4+9XjsY56C+0iQ+1nC/IcvvJFlC0KH/PBLH0x5n49yPUC6AKwCKeiRfUKiCQv4k4+aet8V9g+RnDmPyJNf6Tkr+BKLneBiB+jf+Kxp+k/MWI+K9DjwcTTP6k8R864ucEvxUF+oH/M1Fz+3N6AYTl9rv3yxTdD6aJ/12mdr8qABYr8YK6wmkzG+p2n75bxuRf8Kt045Zu+Sef/AXOlUIVJXbEv+R8Vzz+NenxkKS1b4TxryfJu6xTE9Hq941tzEC/WFa/4Vj9/c8vRWkq9Y+TApBf+/lR+MojwiP++yalsiO+pRNgxIh/ohbEYGFGg58kNf5B3uMBhmf8YVjG36M0jFWhH1GUv+9cGgiP8pc28YkR5e8i/4HfOAOfH6/u/wyTY6z8XG5yNUEzhIV+YrR2JVb5E3Z3M4Zq+REn/ySFflzjb6pR/kobfyKzVzH+JoHyVz1aTOKf8I8XN8KfYpGnsPqjR/jT9xtgH3y4GB9/HEVxVQ/AECjNgzKJ8sTwyZ/m9qeYluzubtEnf66V5rZ7yXMxcfLPf1U++afP+Ig//lGC3iJnfMQYf66F79o+ROl+c4ObGrB3fXygU92yuORPybs3Hg8Eo1dAPch/8eEJGgQ4RgpADmz0/8nsCVs4+fuDzA2J4IMJ0Of2ZUb8Uyby8NauRW+V5/qXk/HhOe2GP/6Ua9NIxx+g/IwPUq4/7VIZQiNuD/P9y5wkyyZ/EFjxRJItmFP8mQcS8mcsVey9p87G//YHxdgqABegrCq6QHoi/gu6u1Hm597AVUMnDTOwF+m7+0GB56PSyd8V8Z+O/KnjbwqVP5Mz/gyKco0/JBr/WpI/N+NjaPq6253cyvzMPt7gN296ny/Cv+A5t3ufdK2fmtGQe/M59qvnfmo/2YCPZ2oMwPgqAJeE2A1u8o+V6y3Yp+iTP5TU3a1o8o/b2pdq/co8QqxBl49/gAIkiviv3fiDbPzrhVmUh7yK916ZRDmARahUyzjoudSzEJDRQLL6DXgCVi3vnaf2/3gGAa6HdiSoiwC5pMCYAEsv9FPDyT9ioR8/wYMn6A9kuf6e66M+PR5cv1R1rQfJ+I9EoZ8ZlC0DrNQofP9KWHJZx+reRyD26Ol9lDETp/cRj3Vp20VK/+PpAbBr/0fxCaeEyV/Q2pdi4SaZ/AU8TD8oepU3r+VrPDZonRr8JOnxQNse1uAn8fhDwPjXE9b9v7NHI5ibgFM2TsNpR0wBzA1My3a58mHxcvs55B8zvS9Zbj9D0Vna9ghoLwWoAjBuOCM77oCIf0mNf6ZrNwoBitK9JPvLS92jNHghT/6EAymzx4OJkgcfd/zpha5qOv4hPR7qiTtRdvRfNyuXtdqyl9iX5ACU/Xp5TNrEh5vb7zvrsev4U8jfeMif1HzoENx2kmYBjB/OjZ/rnRf0VWxFG0eJW+qM7O1t7iv0Y4puJY7r30CUoK++oJ7gEsficyDN+DAFx29yjr+88Yfk4w8QP+gv4vjXFz+HnDTA+VYjO7DBpYCjIFsGoNfxd0bgF5X/NR4CDQkOpFr9rnK+nkA/A0DKNNi77xeOeQzgOMQA9IzwPiinFZI/24qXpLv5rRvKBAjSyd9HMKzJH2jHD57JH1yTP/CsXir5F42/CfDigPS0pxl/vs2caN0/iPxF/qu645b+DQtI/pc9YjuaZK1OyfoeHIcH3UiX3sew4Mlr/ZwGPlSrHzxWP3G/9n7/o2Cp+EILxhHj5gE4AuUEn1WUS0pRgr/9ikEwAbID3ny7X0aN98gR39L18Mpq/Eccf995qqLGv2R/Qio91h9f737S6Fj/+6+exycmrz7NCeHkb0oif272QVEdA0KUv+GQf57HAk6HdmzF+GL0PQC9Lh6r8a1gW6SVdndjWD+1zvV2e0ZiFvrhnYO6d/ejKiM+5c/UePwN79ofbvJ/qN8DYMn/0HWzcNJh050AQNOvH5wWRvw+jXysrP7uFw5DOR7lgXFVAMbNA3BOLSZ/CJn8DbO1K9HyS2H5iyd/xnHFUICGafw9Z6NW6X4pxn/4G/zcjHJP94aFFsD61Qtw9AEz+GQgAMCm/x3rtK4rJ/8Aq9+UbvX38Z85R4MAx8fbcbp/8qdPsWWm+3kvzYjd/UiTP8Hzwm7w46MocY1/SNLjoZLxLyHjo27jD6ND/hZfspzfvWFmfgIee9IOaCzLvR5tutqhtJS3GN37JOTfN0bU/gLxc/sZis7Sfp0BY4xxKgRk13pOrLy1b9nd3Srv6861/ASTP9v1reNPSgWEeoz/kOb658FGmt3Uv9Ha/IfvPwuNiVwr1BJUM63VLynqYwj3J4f4vQ18IElaIsBZuO+rUKbHUQEYJw/AScbbAII4+bOmS5elFcf6iWf5RYCJ+jby5B+n0A8tQtJIEkZ851vc3S/u+PsyPoypYvxHZg6ya//f6N5go//X7zMPF5+4A2A2txTg49Nb/T4C5ZK/xOpnKhwcz4Fzv8yR+N+RMFrXmSoAOTg106TDGvwU3oA9fxqg9q/v/aygwYuhaM7+oC/jbFYkTfci5rsH1vinkD9lu3N5MdSNbXJ9EGHWrzFEy4na3ZFbh7ms8R+ZmflGlN3dG6ZnJ+DRx+yGg9bNArQGFAAbpPYomjXMXv+Galr3+poPAbib/jg+Y4BRCGjp/fvAGC8DjPwSQFd4x5myQi8uApSbx7yufMUWYayIf4JpmjDdSxjxzUj3I7f2Bc74y4P+INn4g2j8q0/3E4z/cMEW/vlY/8ZGw7St/2bT5JQGskHL5mD/SZOsf/uuiYhR/tweBE7XT5LqhaeMayWgyTE6zjPzr48SJn/vuq+MAGsV8U8M+krf4Ccg4t9zfQzH+JfR46EGcR/DB+v678n/t9H/a1YtwHnH7wCYb+Sdh6e4L+BhXe+XKAsSRSdnv/KP9VHqARhtP8ARKBvrmetdxBeSQj/DH/RHs/yBSf5VF/qJOP6d18Z6/IcT74O+6P89c0244qwHYcP+swCzE/2nwrb/vbRa4i/D6jeEGzGCsuBeqjgOn69B2TFuCsC4xACciOO9P8uKrmNr11DLL9HkD4TJn+XD8Fr+JpKr2Qzf+IvIn/DlwzL+w4k7UD6e98Llp23LSv8PHrIN/ttYDvlL6vjn7ZeQ/MVr/VSr37sfG9scMYYYfQUgu1iOdU7+0hr/Xpb2OcX5Nd6TdfeTzMO+Gu9Fr4ZU+mMrQEYQ8R9r/IVvCuzxYLwE4Vd/OMdIaaQUc/yHEO9G2dK9wbb/PePI3XD6xt2Z9T+I55YX5e+x+oOj/H3d+ximDy23n+jlWHq/rQ57rCoAo4szo5J/X8R/cXe3QoUEquzu1rPPBsQR384ueozubt5jF1u/0oh/gsLA7O5nIoy/cZG7oU6a9PGP1eCHsn2Eyf9elP/bvaGBJv8uJP2nnbEFVtn6/4Ptf09GeYLfEjYeazt29z6P1S/u3pf3nZJ9L3o/QWkxZiwzAUY+BmBZc8K21zieRv5cA4g2wfniuymFXijfQ5n8qdYovbtheGtXkrshMvkXn77AjA9D2SQbf9E3G9nOV9LadzTxlyibuzfsmWvAyYdNw0Xt3P8i6x9W061+H0lDrGA5ptUPJVn9wNj3QmX9NGgsVwVgVPChr94G92/fAz/dvPPglZMTRxVftALrXzr5BxBg+gY/RPIHyuRPnHMYlj/5hFO316jBT7LxB874Sxv8RBj/0cUPUd7Rv3F2fgJe8YRNcMTB0wC7B6ZgW7H0eTRyi0zkhZu4gXuR0vsMp7+AQFno3pfGyiNh15f2g9k7doKZA1h3BVqPG1UBGFZ8/uZN8JNNO2DflZMblzcnDjPeOdgzARoP+SWJ+C/0M0Qm/9iTv4kW8OitdJc3Lr4EgqHJ+Kh6/H2nXCP+PfgDlJ291v8EPPKI3fD4U7YBTOVOv0j+5vDxsfojVfhjeQlylIvG5JEw/YONMPXdH4HZA7DveWOhAIxsDMCq5U3YZ8WkXQI41mRdn8Imf6aFGUyAzslfkuvtf2JYsYRlpfsZys5QMtkF4w808q/V+AMzWN917Kba8R9u2Kj/j/ZvnF9owHUX3g8rli/0rYG3xaaivWzwxMYm/8CmP6TufXlWP5H8JRX9OFZ/rmfBrIbG8iNgYjWyhS0O2IRxwAgHAS7dVKclT/dK0eAFJBH/rnQ/w7T8jeM+4xb6iZnuZyBo3Z81/qae42981zz3uqnh+A837kd5Tf+B755pwqkbp+CJp24FmJnIOy8vRDmBR4amgDyphEiOlPek6xXco6zcfk5QIxQE+jnmcONVWk6BMcM4FAI6Pn2VN59xFTHdz9fAJ3mDH0bEt8uKjNTa10+MtKDPoRl/kIw/t8Z/PcZ/iPFqlJ91b7BNf1ah1f+aJ98NKydNXvCfXfv/DZqiJ7GEC8if4k1wXsuRyv/ySoQKA/28+32iX5FWD8AwYblZLKYRGNHtnvwFNd5Li/iO3eCH/fV8hYStAIX3eAhTjEocfzMG4z/ceC/K3/VvtGv/V53zIJz78O1Fkf+W/I/Kt4QrzO0vLLojye2XFjHi5vaLyN/iaBivBnmj6wHoXDa2+t+RdMufaxXx3L7UyT99xH/e8RsP55SU7uWrdzB4BALLnzj+CSL+6zv+xde+pvuR8W2UV3VvsFX+ds004biD9sBvP+le1ARy15ZPwhPzCr8WlcLqjx3hH9PqL434F99/HP63Ds/RlnHpDTTq2s7+OJAHsFQG1uRPdB8ETf5Q0uTPtNick7/c8qf4OljbhXnw9SH/ssbfV+NfLX8PbMEfm763rXvjzHwDDl47B299zs9h+eQCQKt7rlmSP8L/1rAK3USz+sFj9acmf0Zsg89bEUb+9r9DAPJLxqsCMJwugCMgK/PII8DgiO+YrV1N+bneAz9rmJO/NOiPQzjGad0nS/cjjT+MxPiDd/w14r+DKZQXQJb333PccwsT8JLHbIJTjtxV5Pq/Gt94Ja+2PfDc5pyKflSSHbgHiVH+hpvREJDbT1Gmet+/EqzHWBWAkcGx0Sd/kusf2ARICfoKa/ADcSZ/LzUKXL9SAmSTbeIeDwEEGGv8GY4W7/hT612Qzv7okv88yktQPt+90br+t09NwkUnbofnXbR5b8GfXuP/UJQ/lVvCFEJkBvqRCVQQ5e8s7JOfeRI5yr/PyzHwAzhs5oRxCQC0GPUsgA3RyJ9c6IVf5jVWd7fKWrsWmNwcyy9Oa1+T1vI3wzr+DE2hovEfUliH/q+jfLCf/HfuacIpG6bg9U+/A1WEiaLT/xaUI/jr31VF+PfvS4zqfAX7FWz1A9Xq7399wzh5AEZdATg02uTvIn+fxSZt8BPZ8uOxMMPCS1LjH0po7QtxyL/U8S+yBIFE/kE9HhjjPwbkv4Dyq5B1+uuBjfh/+GFT8NcvuBU2rJ0tcv2/CE/OtXwCpWiCoeQvreMfo0Ifw8ORpgzx6Jf/GxMFwN51h8cjRuO5RmWtXfkNfop2sYx0L2bQn3hJJGZrX57fQfS2Usef29q3mvFPpqTWA7tQXtZv+VvMtxrtbn9/ftVtsGH9TFHU/+l4ct7CJ/IyovwhlECF5F9KlD9FaTkWBQfNLKgCMNRorMy0Obr1b7xWEcMg8lg/1BofZUV8i/bHW+LWCCx/fiU7WXc/7vgbmoFCnFvF4w9pxt+5T5LxH13L/x6U61C+MOASQPKfmZ+A119xO5xw6BSSf261v3UofwsD0ebc+vf9A8OoqR+Urscl/xRNfJj9A3jKwmH4p+WO3aoADDUMDqJZl63IUSZ/WqGf4O5ukQu9xLL8/a8bXraDCSB/ZsR/DPIXKR8B6X51G//oNf5HE/+N8ksoP84jf+v6t2v+z71wM8B07tRqNYK/RjmjXlZ/pO59w2v1dz/sm/HGeCgAo5wFYEtrrqJP/n4NN1axk9q0dh0gWe7kLyN/EQFWke4nyPgwrCuqTuPvVoA03Q/eiXJZP/lbd78l/unZRfK/LyP//FPwJpSrislOYPWzc/slDXkkVr+kiJHxKDkxFB2vV2RN2wswJhjlGICDUFbXavInBrxRXo9S6IcSX5Qg3YtHgCZNul+CGv/yiP+Y489xknnI37g9AtLxHzLchfJ/UP6+/wVL/rv2NOGYA6fhV594DzztkVtc5G+zBX5XZglTrH6H9Rytjn/RdcKIwBe3HWYqRpzPDNYCOEQVgBHwAOB1MOmbTA0pEtV/EcaK+M795vgdfVgNXmKW+WU3+PFZpKwyv9zxF/R/qHz8I0X8+7IQJOM/fLCk//sot+eR/87pZnut/90vuAU2PGwPwNSyou95Dsrb6Jaw794d1ih/U4co/wKPRc9rB8CYYHR7AfSUAE6b602Z/Pnd3QiFfsjWvyzim5rtEEb+ZdT4Z1jLVfR4YIw/xftjiHEdWuO/EN9A+UOUf817sWUabfI/+bDd8K5fQvJfN4vkXziVPgPaDYLMsuqJX2L1l1HHP1BpCbf6+19XBWAEsC6NkVxW0Bcw3cLx073I5E/Qxhhmv5D8CT8HHGWK7qpI0+AHxEF/lIOS9XiIlbRaW9j1/bejvB+y8r69Vj9AO8p/AQ/6ZZfcC7/82E2w/8p53NgsOhO/iPKBLCB5WK1+LvkPRaCf7zMaAzACWM+y/kNau3qYqFYNXgAiFd7hBf2xK/3RTxadAFM1+AGyjlf9+Af1eBCM/3DAdvH7G5R/gL5mPt3YsacJG9bPwluf8zM4+6idAAuoEswVxlFfg/IePDmr3EQeMb2PTKBkS7hi8pdU9Ivh5TAHqwIw9DDrs4FtECd/4zGuS2zt6rNWgyd/99p2tFxv1zkocvs7TOFkEf91a+07LOM/3ORvid7m8tt1/s+i7Ml7k5095hayFD9b2vfNz/w5nHT4bnz3pOvYX44vvq13fi2jdW8sq98EKgu+cr6+QEICSUdRjAr3SxWAEcBa3uQvsH5StHbNVYzLaO3qqvImyPWWtvZlF9Ypq8cDsM/BcI0/0Ysy3OS/tWPtfxKy5j0/KXqjJf4F02hH+a/fdw6ed8Fm+M1L74HlE6Yox9/CrgX8MZ6YV9OtYInVL3GbC61+w62EFqN7XyVW/94H014+bsDIl7UYbQVgX+/kD9TJn0+A4tau5BWI2K1dmQsGRp5AKGrw4xu3SD0eohCgqMFPrPEH4fiPXIMfu4M7IGvR+12UL0EW3Pczyod3zTRh5bIWvPAxm+Cacx+Aow+azmr6F7v8D8CfvAH68/yjp/dRFLcqmvhIyD9hGWIp+Wd/rO4s3UypAjC82I+2bBy/wUu81r5ke9t5/7ALvYRO/hICTBzxLxr/vW6e6Y7Mm6wJTKsu4+/1sASNP9SZ/G0nvoWOWKJ/CGUTZKV670W5GeU2lPtQZqlfOjXbbB/eWUfvhJdevAkuPnVrFuSXX9N/EY+CrCnQGXHJn+vyj2EJC4g8dXofWQGJpujs0zEgVQEYYqzyu57AN/nzrF8vMXJfi13ml3iMIfO7YbqRozf4IZ7gwe/c2SGP28FGg5u2pXg/yoOQuY6t2HXieTzGBdGxJxh/emceyfhLXMKlKgCLMtcRI71kp+cygrfE/8IL74NLTtwOE5P41bu9U+RL8BveDEtBx0LrmePGibbeP6zlfGPENjjjFCx3rIYxwOgqAAaWF1pR3nx+meXvtMgqrfFedaEfQi1/geVfeA58mQXZUyR2Y13D30L5qslcwz9vW/oGFCOMbH0fYHZ+oh3gt3zSwKOO2gnXIfE/4aQO8Vurf8Zp9R8J7fX+drR/ROJXq9+tFJXSfGgFZBUBVQEY/mOLE/FN0dJrE/EtTT8LCHjj1zuQNvgB2jnI334bPr0JH/8Nt38dciq8KUYX80j2NrDPRvTvu2IBTt24G849bgc86eRt8PCDp2ESt7VJf77p+6rn4/XzRuhpN16G1R/DElarn3CsK2HAg6wKwLChabrTAAsuiuCIf6flC2kivkkOELdykCLdK6rCES/i37rwPw1Z5LcNBNuiVDgesB36ZpH0W/i4gEb9Yetn4YB95+HxJ22Di0/cDici6S9fPQ8wh3PE/IRvnd/iDLyqXo+PV/AsYYllKyRy5w0UWscfImQoSKP8QxUdVmriio6oAjCswMm/4WOW4Ij/urn9B766nNa+vHNAyPX3qTQ08rfpXh9E+TjKHaJryBRMI9KlfnbVP4KyFNLwKZpiVi4WK/JZi75fv7dPJxoG5pH0D1ozBxv3n4Vzj9kBxx4yDecetQvWI+EvX4mW/nyH9KealJ/cAFlu/6/BYnZRNKu/DEs4hdt85Kz+/jFapgrAaGkEIK7yZii0FPaCofTlCyF/8Fn+pB8lkj+XYIznnmaR/014hO+ArI77HgqZtDrWYstkrV0N6o74P6xesdBu+hKN9Bqh12/k3xzSWAdL7qcfsRsOXjcH3eGY1r2/etkCPPWMLdDE4z4UFYBjkPjb56DRytL48LMw3aT+1IEoL+oQ/8a0Vr9krb8Mq1+SzRDD6k+R3kfYr73nRhWA0SJ/nrXjJUBiqhvF2jNBO0j8DMV0HXi71O3PbfADghr/Az9g1/b/HOVG30lbLPJiA8BmkPBXLGvBmlXzsHp5Cy46YRvYTO/lzRZcesoWWDHZShL4bsr6tKnqJotR2S3/N6yydtQBe2Dl6oX832l1PAPWQzA7sXfU6efCkv0LUF6IHzrafX9X1cQnhhWfgvwTliFmfUbgFend9wlVAMbC8h+8GCor9FKwT9RCP5SMh1Ii/pN39+vBdyCLxv4EZDnhTswtTMA0ksJ+q+bgpEOn4KITt8GR62fg0cdsh0lUCtaumUWusPvayNzEpaBRr3umIb7R5ApAi1Pa1VZjmOhY8hTCIeNclOeiPGuwHnyKoj5q9Schfs5SRe65aT9vwhhglBUAQwxf51lOht1ix8PdcfLd2dUJQ9Z5JeTv2yNWd7+l4L4/xz9t9bWdrt217VutpW85ZiOS/ZVn3Q+PPno7nHzIFDTR+m9/3WKFtz1jcd+X7hCI+n4TVWE6BuXSjPThMdmcGKkqHpX8yd8RUBJX/JxLoBTyT2H1C8fEqxipAjCsmHfSUECDF8okVv+gP4fnQ9RrlxsZR2/wk7PdRvT/HmTtWwt3c641AXNoxa9a3oILT9gKv4jEf/phu2H/tTNZABgt8lsxenPew1EuwKvkMny8EHr6vwe4tCXeD1FRn6q691GshTJa91KMthhLFaoADDMWursBBue7OwPeTPm5/r6DSpHuFy3oz3e+C8/BZvzvtSjvLfq4Ddrb07HmD1ozC089/QF48qlb4Kj1e/Bqb2WkPz0JirGBrdB3CMqZkJXsvQjlRLx89vValCnT+8gE2r8vZZE/1+Uf8VhZ5C+O8ve8fzwUglFuBzzjJiM+Acaq8U7a+0jr/uU0+Clj3d/8O7RTsRxWP8q23ZNw6oZd8CuPvwvOOnwn7LdqPgsGs2vGM0HWvtUqVnbumSaMSZBQXW/ujma/OBY2Z9sWbtkPsgC+4zuPR6Gcgm8/ED+xT3xLOHVuv6R1L6Rd7xdV9KuK/CO0HVYFYGixm0X+okI/JkmhH8r0x3b7F9yIYQ1+XPUOPOTPK/Rja62/AWWmSG9ZrOX+wsfcAy84/144wAbz+cu55uEwyNaFbanXE1BsFPjajliCsSWml6kCwLGwfO+nqJoD15oN618ci9WZmEnoCWGsIuq9KqtfoiyMqtUfhfjHQhMYaQWAb7FzrOI0rV291j+//G0i8gc5+dN9C7Zq3ysgK+gzADvT755tQnPCwIXHb4Vrz90E5xyzHaDFcvMfhHIOynmQuYct4W9QUheQvxEEYnFIJSW5DU33Ptf9PexWv0TRSUD+WQWwhXG4e0dZAdjhn2g8BOircscwcnz0xyF/WYMfroLDU4BYSgmtwc+tKNei/E/Rru3cMwnnHbsNrrvwHjjv6B3Z98ySLH6b4mUjv5/WIX4l/BiWf7AlLCHEKvLjAcK796U41gSKTjIi546TYK1/YJyo49reNq8KwHBPTdt8mrQv4p/a2a787n7AJP9E3f0GtriVAkqKYWeXvolyNWQd+gZgC8FsRwv/8tMegD/5xVthmU3lo0XzXwBZnvfTUQ5VAlerf7it/lFY60+xVBF6TbZXkeZUARhubPcSFjvdr86tfQkKMt1/IVCA3OeMse7/RcharG7uf6e9LafmmrBq2QK84YqfwTNOfyCr1+kmf/vik1F+HeXxMCYFPqqx+CNa/aktPbX64yhodbT6IXRcjSX/GVUAhnuu2hpCgLVp7Uve5/jpfmwFKDzd7zMdC31rHvnv2DMJZx+9HV5z+W1w/EG7M3f/grMojM3z/h2Uxyl5Ryb/4K5wMSd8E6AsUCxbSaCfb78kljCXQGOQv7R7X+wMiBjeGarHop1Btmcc7upR9gBszcvnTNbad5gK/ZTd3Y9m+X8OMrf/jrxd2jY9Ceceux3edtVP2nX7YY/z0n0kim3b+nQl7thWfwxX8jBb/bGJX2L117V7n4T4IymBwW2Ne55b8p9WBWC4sYVlRacs9ANy8odI5O+37gnniUz+bMv/v1Cek0f+dr3fdn974ikPwR887WewZsWCK7XPFnd5FcorUdYoeZdN/swSrxwyC3ouIf9hDZarodUfOm5Rx5XkKZiCThq5KgDDO3k9gP/NQpa3TSJAvvOdkOtPUVi5hX68+yYI+pMqQOGFfm7uWP5b8sjf9n3/3ct+Dleduylz+c8Vpt+fj/I2yFL6FLHJn+3yT5TSRZrwAzwW3GOtW3ZCcMBcijr+DPIXp/dRiJ+6HwYVAKMKwJBjc0eTW+4lQHHEPzBjUHi1JaJG/It/z9EvwJcG6Nc37kZ5Nso9xeR/W0b+eyZd3/cbKG9C2UeJOzL5iyOqueRfg5Q3EiGWFeU/rB6LkuIDDHM243k5dqkHYPhhA8n2eAlwaBv8MAPwpJUOWVoPq8GPXWN7PuSU9h2w/IvJfx3K9ZAFDiqqJv/arPcb4g0yDOv9EkKMka4njfKHtOv9ouZMLPIHaLW9kVoJcMhhCeYhYxuBSAv9VNTgR17oxxS8XRjxbwrpPUbQ32+j3NT/rnbrXkv+T0byP8dJ/rbe+99BVshHUQurP3XK2ygF+sVQjIbc6q8b8S+939w3Lnf9KNcznzHWxUw38OmWf+61Ftvyp+6PT0UJiPgnkz9wyf89KO/Ie5ft5PfqX7jNR/52nf8zSv6xiJ9D/mbwYjSGTlYsNy83Z7wM8jeRrP7Y5G/840Rb/5Zb/SbWOEVI7zPMcep9/93jcvdPjvjMdrcrGj5Wg5/ia9P4DW3P5/onkqgNfiQKUECN/87ufA+y3PwB7JyehAuO3wZXP/q+LNI//0svRvlHlAOVvCNa/WTyp2h8oWldkiUCypVdUvc+NoHGiPJPYQlzPAUSDxBhv9h1/KN4Oe5VBWDo57a2BXFfT3MwJ/kT3f7JLf9il3z6XH+XAmTcbn/PJNz5SRuU+SuwWKa5g6ypzwScfcx2ePOVP4FGCze0cgv82II+H0PZX8l7HIk/xm9IrX4OiUs+M0rd+yKMUzXEv+gOeEgVgNHA3XTLXzBvpm7t67xQHdtFlr+ktS+L/C3eivK1/ndOz03AYetn4G3P/jGsXblQlOp3fsfyV/KvHflHqOKWzOrnHGug1U8mcgH5B5chHierP6iOwbx6AEYHP6PdRMaTyWTEMaFBrX2d+kXsBj90VWFA/aF9oW3w85b+jTbor4HG/m89/g5Yu3q+qMjPyR3yf5gSeEryj9hkJWpuf4r0Psd+sYIUIXKEf85+cY+1TgWJgshfmtsfpOjswOd3qQIwGrADaVMBV/ID3oou4Jw4/GQNfuitfYO7+7Esf8O1/G1BJhv1P9X9zrbrHwn/qac/AE849aEi8rek/wHQlr0VEr/E0qsq6r3/3kxB/CWt9ZuE7nux1V8G8Zdu9Xf/bauRPjguM8PEiB/flu7BlEfYs0xzP/kzfou17i8x5J1ZAvKT1Xc/WwL/z17yN7ATCf/so7fB7z/tVlQRJvK+zyqoNmPgTCXxKq1+iZu3//WyUt4E9QKk1rSh7EPXNm5Gg/h1qmJUBvkTxsQwjy133yXjmLtfd/UbKqoADC9sR8A7xBH/BsoP+utKp4lW479zw/Aa/BTf7Mxiyg/g9jfu/c5M5loNWLtqHl5+yV2wstkqCvp7LcoVSuIRyN8YvkVpGFY8Z8IfIMPQlLccgjSUNLnBe470Gwb4wYHklMC8eccTk2GYRE5eyjGM9D7qsYLjmpR6RbjXsfP9P0FZUAVgFOY+Y/s6m7vSN/gBFvn7TWg6+ftr/Au9H3GC/uyzv8T/bu9/t833v/rsTXD6MduyGv+DeBLK65TExRe/Rznk5owXfMYwrVRubr+R5PYzrEFRbj/Deo6e2w+OcTLAz+03IAuErCq3n2jVc+pT9Cp1dxYbQKOHyVGfAlF+SrRUPXMKM4DPS8bhEf/U5Yr06/6F9zXeTPDX/e+xUf9nHL4LXvaYuwGmluV9zUEofwWjH6OS1uonk7/vGpRE+ccmQwmpUPY9RWxDnpcDmMdbxhp4iij/yGmY0Y4VgBj7ccs4zRbjMMHeTLf8XQToJv6g7n59N0/6iH/DbO1rJJa//c9a/wMBNa1WA557zr0w0TRZ0s0g/giyUr+KSom/4DPRu/eFRr1DCbn9denexyXDqrr3Saz+FHUMWEqLnY1+qArAaOHnlnOgvdzhcvQbB3cHuoMYrX2ri/gnEAsv79rWYHj/oPXfhNPR+r/44VuLXP9PRHmRErpa/XGs/rK69wGUU4aYS+RlkP/QW/2LuA+fbxoX9z/A6AcBWtwD3e1mmWNrUkf8Sxr8eHeatoww4PZnN/gB1zl4H7QDAPutf4DnofW/bLKV952rUP4EpamkLiD/wkA/4yEhyYTvWXs2sde/qQSamvwdsQ0sL0ds8s9b6+cGKUp6OlA8HNwo/xjkz70W2u//X8gyx1QBGCHcD+216JpG/DPUhvAyv2wrnlPjv3v7jo4CkGP974THFFv/L0Q5S0mdSvyBrXtNgshuinIQowRwlA5+KboVEqP8nVaqxPLnWMJdvxPcbMlEHFcIbeITcC20Ydf/W6oAjNQEaayp+bNqW/u6yN8U3FMxyX/w5vW39jXFRoH/HHwa+qswIhbw5eeecx8sX5Zr/dsSv69SYmda/eCz+k2BssCN7CYSu9eadEX5Ez5DSu/LIwhDI0PDOdYYGQ2mmPiNbz9M375Tzjl3nAzQUj1zPFHsceVkNDCu4YF51RT9xrfGbSYZ8TTAJfmWk/wllj/h9ykNfijby+/ux2rtm/cD7+87/+20vzPR+r/44VuKKv79MsrRSu5Mq5/j0Ult9XOr3HGsQ04dA+O6dutq9ftuPq7VH6sgEdQgvS/P6pd4UZyehXnc9v1xSgG0GJc0q1v5jOkh/+Aa//SIfxL5pyjz6yL/4rf8CP//cvcmW+Jnbn4Crjxzc2b972nmWf+/ogTPUO2iRFRzJ/yyovxzyJ+itLCeA6SP8pcENRLPOVtZqEMTH8m+S8suM4/VtGuV3O5WIFUBGFb8GGWL6ekkZ/w1/kk8bHiWPzOYuj41/gnnIHuw7v/d3a/aqn8HrZmBMw7fiXp2rtPp2ShHKclTNNRhiZSvICWQ2wWvjEY4VKtfpNSVQbgplEDJvqfIbOnZd8sRW8dtdpkYk+O8w2Q1nj3sxm3vy04pYH1fzIh/+bGzvs8G0Hyq/x0zcxNw4iFTsGH/PagADJT8tZWANO2POtZJiuNwyZ96PYeSRCj5A8ESBsG+E5U0jpbPLtMs0SMZBcs4Yxt9XEPmIxDWeYD/GscpZRwqAVrY2s7fRjm96GYODvojVfkb+CV3oR+f9e/rcMgI+jPEm82x7r+oRX+nfxeXT7bg2nM2FR3FhaDNfgKtHynxj2rrXokLnLLvKTwWsS3hEj06wa17y/BYkK5Ju+GbYRqWKgB1x3eTRvwDJQDPMOuoxCR/jvYtIn+LL0GO+//w9TPtAECYy3U4XTNGnqgak3/sNXPqWldocRyJ1V9GHf8Y5J9i/VsyToHu+9LIXzKu7W22aNn31AMwyj6ArCTwAj5tFpI/d3LOvaaIrveQBj9khcO37u8r9MMif3suv9j/DTb3//zjtsKKVQtFwX+XKuFHsISDJsEUefpMpSW19ZxM0RGcz/JL3JZI/oHBgXEq+nG9XZb8H1QFYKT5PwsERDkwquVPygYwJRX64Qb9iQv95JH/9szL0r2rDVg52YLHHL8NVa/cdr/W/X+EEn8ZdfyFZMiucEe5wmKXxE3h4YihGI0T8Uf4jGh5Q2z1d//9n9RZcdQwTq5Xq+H9lDUthzT48X5OmO4XjfzFDX6KYAv/3Na9wbr/j37YNJx82BQqALmX2uVK/qms/gi5/dHJ31f8xUNuomOVtO6NUb0wBfnHat0LvGPltOFdepowt99wzqe3cNQc/veVcZ19xkkBsAP9HY71L5i+c2/gUhr8AI/8KYdriDUSOnv1dejr7Tcz34BTN+yGffeZzSuwuRrlfCV/30QrsfwpkyCBQKkTPhh+bAl3wqcqLSL3fYyKfo77yxDPucSyBY6iQ2kUJLHiXdekr6Ifw2PBvRa8mRjt59Zo+b4qAOOBr/eQv6O8pTfi33TTu2GQv8kn7NBcf8Oz/Cnr/m5LLPumrr36Yd7Fte8K1Alaue7/E1BOHF/i51jCnDKx3BKuPjL0lKIll+Y1nmM1Hqs/dhliqtVvPIqRpyQutQyxd1wLJiByI5y882PcxG8MY1whYh1/47H6Y12TbfwH9AUujxMmx+x4v4GEheYoLKcbJ5J0v/iWP8//IMn1N/RzMAibZvnj/s/b9L9LT9lSpADY1L9lavUn7JE+cul9lGOtU0Eixm8Yw/uMOD6A8BtDkd4nWevPvSY/T59v1QMwRNOs/ddaslI7/+6ErONT4nS/iK19C9/LzfX3zBsU8h90+y9iF/TFV1jKn19oQCs/+M/i7LEmf876t9di8hFiavIvo3Vvijr+MchfVHceeOvfFKvfsV+ca2FkyJ/Ustq2Kx/b9f+RVgAKYF09Nydp8JMi4r/zepwGPyZmxH//F2zHTdu6vYJzCxNw+P4zcMi6mTwPgL3ujh1r8gcGgQZN+ARrjxwQRln/jqDoUCf86OQvcfn7yDB0/TvP6ucuoRD2q2ecKN37+hVSYsc/UnfDImWK0uCIqsC2t9nqf5tUARgv/Hch8YU0+CmcYF3meIDrnxnxX7yLDAWoSI0wcGfHC7CEObT8jzxgGg5eP5OXAmjz/8dk/d+A39ULhEkwZMJ3ToKRLGGm5etUdLi1/GMrOgKvCDkgk6PU+T16fA+QYB6KcayG+37ib9AC/Yo2fRrGHKMdA5B/7dvWwC238iNp8GMKDBJhoZ9SGvwEW/6Lr6MWbeb7X1iwln/++v86lIeNjcVfaPVLJtnAfO6BfalB977SivpQFaOQcZK4wKlEHnItVNC9L9m1EKWOwTb874tkQ049ACMD2672Tm6Nf4I26aroz7u0iORP8UiYkGuarLSb3C5as/OFl9fhKCvHl/wlFpYvnztvwq8ot59DbtxiLpyUt9KtfimBlpHbzyV/qieKa/VHyO2XWP2Dr1v3/23j7gEYRwVgC14AN3PIv4oGPxQ29jX4cd8P3MBH537tzHvljCN2FB3lRsjiBEec/E2k3P7YgX6SlDeRlQXV5fYzyE2U289c7igtt5+gYBhGTYJCRSdGzArwj5UTkLl4rPlK7ydBMcoKgHFI5voJj/g3Scg/Rnc/5324+HrPvWGA7Pof1Nan8w7ljMN3Ic3n7sDDRvd66554mNYPNUiKE9zlLXQTnEcdUNGPc6xGsO/E7ARRbj9RmVo6N2Xl9ovIsHgOMLHqGPhy+2Nck75jXXr+EMrnlf7Hrw7AIr6G18YMPq4Ah3Xvj/hn5PqLyR+SkD/ViDWEJkb412zeV8wULwGsH1mrX9K9r5Ta9hLLWWr1+26WKnL769y9LzS3f1hb90ap4+851tz32K6ldyr9j3IdAOMUW/rx5y7yBy/5G1KuPwSTv5ErHI5XxEF/g+RvMcMcnhEqAMQhf0rNdAdZcSP8DXG/Cwk0NvlTLWFIkNvPJZUyyF+Y2x8126NoiYBD/sylCk6hJI7Vn6vo5P6Yuv/H3AMwnWmB5iSZ5R851x9iFfoxMVv7FnxF7tmZZ57/5kgRf5KqeAFkyPUs1Mnq51qHQZ6FyMdKHtcyrH5uwaMSrH6QjivX6nfOt/ejfE6pf8Q9AO4YgLZ8LorlX3AjjFihHxf5S9Ac/usqwJqkFgKSWv0cUmFZ/SnW+os+Q7QOozWHkXS0E45raqvfMIMgo9bxd4wrNZ2U1b+CRf4Wn0W5T6l/vD0AFl9G2Yxy8KDSyS30U0zuPvIv/J1ohX4iG7vU1w2MYDptqtz+QCs1SW37/usqkZXqPTehsQ0Sqz+FJZzCYyHN7QfmvgdE+EOsY5Xcf7n4qNL+WHgAvLB1oP+dxFfeBj/y7n70SgHuXH9vxD/B+jfgD/rzpuCOtEcpNvnHyu1nWHtkq18Y2yAhN5bHom7kT6xEGEz+oevfBuQZDb5jNR6vCKeTI8VrZKhr/f2wfWD+U2lfFYBF/LN3gvAa1/IGPxTrj9Lgh0RahrndOVlBweRkwOHvGxHylzTx8U34wsYtEFroRqropG7iI/FyFCg6UXP781LeKJZuitx+H/l7hlhUBRB41z2xuDgvWDVoarHBfzuV9vdiZJcApmbmYdf0HCxf1nK97T9WL5+8d6LROIxf6MdB/lFz/Ysuenq6X+SIf+YNPqZWv3gdnmiBJl0ioFr9PuLnWsEx9j1Feh8AP2iPO06SwEmA0ereF3r/Oe/lOWhNfZzU6rc1jW9fUAVgmHHlucfCgzumoTnhLPl//6e/fcdntu6eeVFzgkoCAeRfeNm6yN9Uk+5nfOQ/6ohd25458ZKtfomCEVvRiUH+o5TbL6nzkJj8jWC/Ss3tj+jhGGR0gMbK/4YDn/UtaKwg3PrzACs2qgIwzHjWebRus1+75b4PP7hz6oXNiWajiADJ6/SRIv79F3opDX6YE9S4kr+kiQ9Fq6og0C+Kl6MK61nw/tTkX6fUREg1TqFLFbEUHd/tjApAc+WH4JCXL4xEBrIqAJGmebyWWsZ8Bf/8LsoZ/Tc7tdDP6HX381n+o0r+JVr9Kd28leT219Xqr2v3vhRKTqAFX7rVHzW9zwXbrfSTsLAL+X+tsn4XJvQUwB6UD/pveJYvgE7+EIv86Y4ICv8V/0T+ORjuEMCAqHfnJGg8P5Wiex8zt9+YSBX9fNakpOmPhBAl3hkuucXo3mf4Vj83t5/TJU+a2y+qShk9t9+HT4Dm/qsC4IDNDX3IHYCXqLsfyU1bbMVLP2dEEf8O70eeDIUaEBD1zrKYDC+fOzi9j2Ihpmjdyy10Q70GIxBocEe7FN37CIqgSWXFc1z+AamewDzWuOQ/h/J+pThVAFwccCfKR3Kp0cmHRh7xn9cUK0KDH5HrP2fyIitAxgztoPMsYWr1NEoVN+O3+smWMMfqN55jDew2J+ne17P/jDbF1JxxsofDMMaVouhEuBaMIeb2g2DffVa/r3sfIU+fVdFPnNvvw00o31CSUwXAh7/BC24PK93PyS9Gpr/yDPBI5O/YxN6fYSH/ooknptUPfKufSlSs72A2gxE9Fx5bcqufcayprX6IfS24rkmfEljSfgFxv9KlGb0H2mkAClUAnJag+a5ZLAzkuKDDW/uagkI/hHX/ZOTPC/ozaW7UCsgfhMFy3LrzRBIOqm1P7N5nKPcCFFi20jr+3D4HAHGK+oRY/ZRxYtbxp8ZPGGYsRLTqha6KfgwiNwwr3nusQbgZ5dPKcaoA+Ok/e/p2WOxs5zJxRbn+ReTv+oAhEVWSQj8hClCtR7p74glt9hLBSh3YNWnwm0/RiVHRD5hWvLR6YWCzpeC1/lgeCxBE+TMzFNjVC4F+rAC8oE9WzArEXuvPw7tRppTmVQGg4qtgy0X61v09Gm2siH+fHhJuCBuPfiFXgOpt9ceI8q9gwi9c7/dYe9zYhiRR/sCs419EKnVM8YvQ0yFJlL9vXAHCgz6p+w6OazLJfHIbyoeU0lQBoLsAMnkL/jcT0uCnUDtmRPwXexmN3/ofUPoN7WedN/4wBv1RrX5OM5P+z/iCuygTPuE3kgX6QY6LmvAbbJe/YVr9hk6gA+NEWP82nCBFKoFSrwUfGUp6FhiP1U8J9DMeJZAbuEex+pPNJ+9E2aIUrwoAVwOwEaMflJA/yfoEWsQ/RTE2pMAZ5ro/CMi/MA2wzlY/IaI6Wfc+rtVPsVBjdO8junk51uRQWP2xcvshIL2P0pUxhdXPbVxF9URVYvUv4i6U9ym3qQIgxR+jbOVepqPa4Gf4Qv0CuvdxJ1pxbn+M9W+JouNWBp1kl7x7X4zcfsc9KGrdK+3exyl0Q1XcY9QxCK1MyYzJKLwmk+KvIGv3rlAFQISfofwZOeI/1/Xvau1r3OTvI21pxL+gwY/zHHQde7+0KlEc8lz+TKu/tNx+CRmG5LsbKC23n1vHAEKPVZLyliK3n7r0U+B6Z12TjmM1xHM+MC+YCNckMMcpOm6FLPVPoQpAEP4S5Xult/Z1vJ7e8udH/NfHOxBg9bOq3KWw+jkWVgqr31Ro9UPk9D6J1e9b/6Za/TCEVn+Ma7IWVv8i3gId761CFQCyzZgju/AifhUspgVyCVDa2pdcVbik1r6Odf9akr+Rpo3FdvMa4LU9pVjCVPJ3kRtRafGSW4rGNpKYDI7V7xlXSW4/VUHjBPoVkr/nuo8S4R8YkzFwTZZaEvzrKB9QWlcFgMEdxhXE9gWU63kEaCK29o2gOQtb+3qD/mqlvlEtYUnr3jKK9FBSCPMUndRNfIiWbRQvR9mWMOVYueMkreMfw+XPUHRE4yrxcpQ6TyygvBay5m4KVQCi4Q2QtQtmk39PjX9fGqAj3a93rjfAWvcHh/Wfs8UQyb9aFaBgfZJq9TstJsO0+l1WfIwUQqmiI6noJ0wDE8c2GCDVw+eUMubU8fd6gIzHixJa2z60YREjlTF4XCWxDaXi71H+XelKFYDY2I7yUrBLAj7yz33mXo8PKvQTXOaXaeE7Yx7KaghMKaDisfrZjXCkVr/HmvSufwdY/eTSs9Sc8dhWf2S3uSg+gGn1U+MnJEV9RKWLCZ6roHGtvdW/iHs61r9CFYAksGtLr/bXAgCP281/+w2QdtIa/zkf8xxj9ZY/eCxhcJN/inatwa17JVa/Z8KnTt5OZQEgPLdfkt5HuepSNfHheoB8ZBjxmgSm0gLAC/qsd26/C7/XUQIUqgAkg60s9U5egx/wN/ipJOLf5bGAQuvfW+UwqQMgNMo/Vq/21JYwVdGJkM9dVpQ/RWkpHKeIuf3cQD+uMsUq8AQClz/xnA+8X1LHv7ZR/v2w5X418E8VgFLw2yj/5rrwy2zw4zDjPW+Xuf6r8wfEiPKXTPhc8idM+FHI33dtMDr4kSxhKvkDk/xdlnCMdrYURadAWw2O8vfc92wvR1l1/IH2mXqQ/09QXqm0JMfk2J8Ba9l2hADbWeo6lBtRzizu7meCLH8SD4rT/Zi5/q51/+T3PccFTrGWIhCVhPihKuIHj4cjltUfk/gp+56we18pVj+H+KneHMH5DFrrr5T4LaYhi83arDSuHoAyYS+4K/Hi/xGX/CmWv9P6JzoWqNp8EPmXbfVTLXiu1c/KcU6x/h2D/GN17ysjt78sqx942Qm1sPp9GQ2prH6JolN5KvBvofyn0pEqAFXgdpRnoPyYRoz0iH+a67+EiH+f+pEzt8UJAUiR289t3BLDihc28TGxJ3xfeVuqlyNBlH9lTXyAcS1Eyu0nZWN0fzxFnIKkL0ZtAv268TaUdykNqQJQJez609NQfkDp7peswY+L/KWtfdn9DWJZ/IF97IPr+Bc8T9a613esEdq1iqz+GLn9vnFiWP2c3H5Obfug1r0hdfyNwOo3HiVQkppYm9a9HNhOra9R+lEFoA74Kd4Sl+GN8ZVKyB88lj/Zqh+86XkljmOQv8/CCl1HrrHVTx2hpFY/tYhRSVY/N3c9yOqXRL37rmHGflRq9fuK+tTG6rf4OMqLwVOeXaEKQJm4G+WpeI/8QyH5+0g7aY3/WA1+jIP8HR0VOORvTEm5/YwueFQij1bHP8KE73y/g8hT5fZzC92QFRCql4NzrKnq+FeV20/8Tuc1WQt8FOX5kAX/KVQBqBVs96lrUF6HMuvhYMf9xm3tC/HIvzNJ88k/xOr3tNBN5vIH/++Ky/9SlQUJQRBdyYZ5TiWli8njJMh1N9S1fmHrXrHCwa3jH7K8YYp/Q9SIitiy2nk+KsO7Ua6FLAtLoQpALWHvlje1vQFgbqE0+DFRfpKW6++3/LkljnMsqlwHAMEz4J1rqE18XJYw44wbxvsN8zcMJX1SktbFsSapx2rIX1M8TkQLnjyuFC8HZfnHd5zM5RB29z7GfgPwejpw4hpyr8naEP8cZOv9L+02rBSqANQZn0N5LNgo1WK/fZ/iH9bgh0yO7Na+hIkzZK7wBr8Bwep3WKnsQD/Ds545wWwAkLSJD7vFq+BYqRaluKOdyxIuOlbC+raEEDlEnqR6YayKfsA41lqR/8+hnW4Nb1FKUQVg2HAf3kcvw8fLUf6HdXMlaPAT1NrXte4fSv5UMiRbtikC/ahk6DpxgoyGaLn9LpKQVi+MkdufwuqP0LrXcDoPUq14w7yGS8jtN7V2+dvyvhej/ItSiSoAw4zPdC7kX7HLAvncF7vGP0OfN54lBGfQH4nluyzrPqFaPwAga91LJCKW6zNFlL/PzQsQLcrfGH5wYNA4SS3hwMA9SU+H4Na9VCue4e0iK7CSVti1tPp/gPJslOei3KX0kR5jXwp4dr4FM3MLYNj3gOnig0Ei6fq+PSh/jds+go/X4vYX4ePpy5oTMDER0/IvoGmPhcXP9TcR54yyuvf5iDy0vG2B1c8hftJ+ANOapFjOALJCNz6r3+dKKuNYJcQP8a5JrueKTfzc+6m2xH9rNkfC36DsUFpWBaA0HHfIWlg+OQGTTYEzxHGzDs7/xmYK/BVufy8+Xnbf1t3X7pieuWSi0dgvWXc/TzwAP9ffFMyJeWoEM2+alHddBvlLrX7Ovku794EsvQ+YnwHG+TQpiLzovIecnxR1/KVWP4RfC6OR3vcNyDr5WZf/Q0rHqgCUikYD4E3Xnl/2z+5G+djrP/iVj33qGz87cZ8Vy34Bnz8Z5dFImuvz5xdedz9vWSBXdz9fuh9r3qDWAzCE34gw4Y9sE58yvRwpLeFUik5gQ57ct9Slic9QkX8L5TaUz6J8EuXLKDNKw6oAjCt+0pG3oxyBcgHKWSjntJ8bOBQfl7EtfxfJG1q6H2Xi6fom4XVUhdUf4zcCSajS7n05vzuU3fuqsvpTEP/IWv02b/9eFBv/9NWOfBNlp079qgCMNXJuxTs78uHOGw7E/4/BPzZ2lAP8Gw5DWYOvrcLH5fhaM3cMTZjln6tW5L/egCyQdKAl50KrAfMLDdoZELfurYnbPLnVL3WbF+6Hza/+KT6fw02N4bP6BQqaiMi5Vn+KJQLJdQ+9PQtau0EQ5ETBfEdsjr6t0LcdsuA9a+Xf0ZnPbDpftev6eJnDxHKoUcyDKgAKLx7oyP8UvN7syCRHv+e/x/uJBr6lx43XMg3Yb8UCbFg3kzn9ggvXlFTHn/0bEvKXunk5n/ES0X34/Cm4aRP0ZAIFZgGwx1VAslL1WvQbjO/hLFtxFQz24S9+AG++if0ADvl1vEuXpbBhFrqkxtaWPQ8rUVYrq6gCMDJYvPFqVyFramYCnn7mQ3DKkbsA9jQJE1WIdViGNVmy1c8lKb5iZDfaWJQ9ehuNMNrEtwrggKv1XChyoXUAFFFhrf9VK1rw/PM3o3rSiEz+RAstanlbCvlTLENG6WKxdciK42jq1ToWWgDelNo/R6EeAEViWLrf3bb+H4STNi5a/5KFiTpFvafO7U8RCyFRWhQKhSoACoUQC2j977NiAV7gs/6jW/1VpPdFJP+oik7OfpEUnYZewArFmEGXABTRYK3/J56yFR6+cTfAHOXSitC4JUpte4/Vb0JLuBoP+Uvq+BcpDBLyd2pcCoVCPQAKRTFabeu/BdctWf8cQuHm9o9Kel8sqz9Cznh7cwvc6Ycxjie0XC9FaWPsR+H7JdcddxwmOo4X9b4o1AOgGHLr/9JTtmRr/3Mc9z/X6hdE+Ufv3heD/GNa/b73M8lfUZbanJ339rlXRUChHgDF0Fr/C/7I/1BLMMn6d0CQItdSLqOOvxEcqwYIVgw7bgtZbXJVAhSqACiGBUuR/2c9gNb/Tnrkf+qiPtEj/GNZ/cT9SlWGeGBflPzrowcsemsaHWVAoVAFQFFjLHTW/l9wbsf6l7RVrtrqH/bufTLyX1Dyr7NHYFER0LOhUAVAUVPrf/vUJFx51v3w8I2eqn8c6zqX3EYpvS8CkXMVnV4PhNXUbF3UlaAUUxVmwVtC1/QOmUKhCoCiLuS/c6YJp2zYBS9/wp0A89zIfw9Rc7u2lRLln6hDXeoo/8F9t10mb4KskUuDfqwQeKwldO/znQvSsUbq3lf8u/acvw4WG38pFKoAKIaN/E84aDe883k/hsPWojEzK00oidCAhp0mlqoMceh6v0TRYZO/fW7v+6PkhBiD/EEwrpRLyUR+vxFcs3mbBz6zln9wGiSoUAVAUQPyP/7gRfKfQfKXlJUvY/07hdWfIre/NOIvwcNRsF9RW/cGKoH18OYshN8zCoUqAIpSyX+yQ/4/6rL8QycmgRcgZZR/3ax+LiFGIf86F/2BwH1PEfchVFxE94p6ARSqACgqIP8TkPzf8bwfBlj+XIvJ936JRUkgoloEKUqOlXlshrmuXhr5UxSjFIqOMNUzyjXJuGe0ZoBCFQBFWeS/q+P2j0f+dejeJyEqids8sdXPrUmQzHJOafWnLvVbktUfq+jS4vdovQCFKgCKpJb/Hkv+U/DO5/1v5vZHZQAagRNZ0kJAMMS5/ZLqhSmCIIv2JeT8qNUfF12FgxQKVQAU0cl/cc3/WiT/NTMZ+XuJQaQFJCT/Mpr4SPa95oF+kPBYk1j9dSH/CLENnFtIGwopVAFQRCX/RsfyP2g3vMOSf7Q1/4RWf1BJ3AQEGi1SvuTUx6jHOqy5/ZGInx3jIrmVjCoBClUAFBEt/z2TbfJ/57U/6CL/VGlIgeRfSh3/MbH6Ux5rba3+FMWaElr9qgQoVAFQJCP/xWj/596cwPL3kF2duvexCLR//0fJY8EN9JOQv+RYJeMkOFbJNWkM85qNpAQoFKoAKKTkv2sms/xvSE7+ESZakyiym03kgs+kLEhUKwKFiuoYxLgWYlyTZZOyBgUqVAFQcMm/0XH7L1n+exK7/etI/ikqvwV6ObhkSDo3sTwWhN8IjvLXQD9VAhSqACiSWv5LAX895K/Er1Z/VVa/5FjLsPrrTPz9+6BLAgpVABQ+8m+n+u0qac1fajlLyL+qeu9cq7+stf4YVn8Zuf0VBn0GkX8dCVeVAIUqAAoX+R+0E95xTcfyj1Hkhz0v1aGOfyzy1yY+aT0WQD/WIPKXjKtCoQqAYqjIHy3/a76fWf4zzQqMhsjWHofIg6xn3+9ICJRrCafycgxrOV/hsQ5doJ9CoQqAIoD8F6P9l8i/FLd/GVZ/aG6/tu6tnvglCloZuf3UfhQKhSoAihpb/ieg5X/DNd8rOdqfqAzUpnsfMNezq7L669q6t8Z1DNTqVyhUARhH8rdu/+t7yL9KxI7yL6uiXxHBJbBSWWQYYD3XPsqfu9av5K9QqAKgWCL/42yRHyT/DZWTf13d5lxPQRlWv4T4JVZ/AuIXKQtMDxDnfEbvQqlQqAKgqD35N9uW/w3XfLcmbv9htPoNgYersPpr2MSHO05RrX4IUy7V6leoAqAYJcv/+AP7yb8mMDGs+FBLWEL+dfJYQL2a+HDOOcvLESPQj0v+SvwKVQAUw0z+1vJ/znfqRf4mYZEeNoEOA/nH8HLUJdAvwMtRqlKn5K9QBUAx7OR/9bfhsDWdIj+1ndRiT/iJovzZAWQEkq2knG8M8ocSvBxel/89+HwTPt6NsgVlAZ/vi2/ZgH8finIEygoN9FMoVAEYT/Kvm9u/dlZ/itz+hC7tsbD6ncT/I5R/xeefx8ebUe5HaeV8dB98chI+noPyDJSL8XlTiV+hUAVAyb9W5D8i3ftyvzJFlH9VVn+lrXu/g/IXKJ9C2U64wHajfLMjN+B3nIePL0e5CmVCyV8x7pjQUzBC5N/oyvNvk//0iJC/AVmVu5LJ3ywSKCNDgewpMF2ngUKgeeeHG/wmWd6QeDm814Il8v+DchHK+4nkn4evoVyD8gt4rN9R8leoB0AxMpb/jj1ZY58brvpW/VL9fErASFj9iXL7S+3el+JYJV6CpT9+jPLLKF+JeOF9vuMV+DP8jRfq7KFQD4BiqMl/15Lb/1s1d/vXzeo3wG/dW7LVT1VaILRID8XqZxxrOPl/FeVJkcl/EVtRXoTyJp1BFOoBUAwt+WcV/nbB9Vd9Ew5bMz0Elj8wCaKf/Oua3lfX7n1FRA6B+x6xINHgZ76N8kyUTYmvwNeh2Bvmd3U2UagHQDF05J+5/b8BG9ZODYHl329sUixQzvp3v/Vs8q38vOemyDNgBJZwv6fA0LwPA4qOr+UwZa3fCKx+4znWGGv9psiLch/KtSWQ/yJ+D+UfdEZRqAKgGBryX3T7X2/X/Nt5/pO9fFdnKbQ6OZaww4onO0Dy3m88ioskP15sCTsIFPieAsNQWkieAqqiwzrW34As1a8M99MiXoFyq84sClUAFPUm/0ZG/scduBOuf/Y3kPynutz+wyQei9L4LGGXFU/8jCFaqSxyM3sVBY71bIDnai88PwVEzm1YxFF0Ct/vsvpz9+Mj+N8/Fl8ryfAAymt0dlGoAqCoteW/c5H87Zr/2iFb8ydZwsZj1fqsfkqUP4MQSeQGwIoHYCk6Lq8IxSMSI8rfcfxRmvi0v28X/vdHDg0j0iXXKvquT0CWIaBQqAKgqB+2TS/vkP/XkfyHaM2fNKGnqvcemNsPDDd46ij/AUXHl9vPUVpAmM4Yg/zb+CeU/+UpjFy0fF/+dp1lFOMCzQIYErRMA/bMT8BFx94Pr7/s+x3yn4TRKGBSw9x+bnYCQH1y+42gW1+SOgas9sALKB9Ieo0Z0r3yRZTvo5yms45CFQBFLehxZmECXnz+rfBrF/8IYL7ZIf+hxXx6qx8Y5D+s3fsoFnHFzYdo5G/xU9z2FfodYdEgvLeRWf2mRb02p1FuLEEBWNCZTVE1dAmg5rDT1/bp5XDB0ffDrz3uhxnxzw/9sLXySYVYuMYb6Nf3ujfQz2cJS/LdJV4ObhOfvEC/FEV6uE188n7Du19fxs3TohhS36VGJ/9F/EcJ98Cszm4K9QAonNiJhH/SIdvhNZf+IFvvb1EJp9bYE2b1p+jeN8RWf5KiPjGsfta4fpt9FdnjbjTcShef/C1sOuBDKAckvAemdXZTqAIwppiZW4Dde+b65lnTY7jMLUzAyYc+BH955f9kFf5mmjSvZ+3dGssfyi69FoFUuOQvIVCAOBX9GATJUXzIr0u+M8F+cVMZs/9vF11LbSWgfVHFsPwXcTfKvekUgEYLzNxDYGbS3mdmHk/DlE62ClUA6oYzjz0YpygDKyabuVPk3PwEnHDQdrjyjF2wftWjcQO+b9moaD+3bob5B3AebDKteAKZsZv4JAz0Y3k5BLEQxgjOTWwvh7QgUb9HyNwnJ7pFXm2EWv5LVyjKjnTEPDcLK454EFaemPhGWwBors25zxQKVQAqxVUXndiWscSD198GO++Zh8aqyeG3+l1EniRYDsrp+Bdq9VOUoqUn1hW2O5BV9+63iRJfl850bk1PwX7nb4VDflMnQkWl0CBARfkwC/ftnWApBEewuIPIHxKQP4e0gF4emRUEuXguQ8nfU4aYcz6Lxyl8ccta/SZacH3CubGxCcz8dp0IFKoAKMYRNsDqZ4VkRW5s46voR23d6yq1yyxDzCld7C3q07f0wI3wz+1x4PJAMJUFahlib78FswJlTVhZ6Vao278f+yS8/vHah106DShUAVCMowtgGuVHbqufu47MTe8DkJW35a7dA9BSE7kWObgVHVrqXZ+iw/BwcM6nf5xQAYDDAq4napEfDvmvTXgD3KJzgEIVAMU44zu9lifRShUTaIx2tsAk/0i5/cA5VoDwOv6O7xAHNXo/c1RNyN/icJQNCa/9b+rtr6gDNAhQURW+0p65zeLabw1K4laW2x8jaE+y75K4htCqi4XHe45YAYgPG527JtF1v7tH+VUo1AOgGCtkLucf4uNPyQSauntfpVZ/bPIvw+o3ICu+VFi98Hxgu92TFcR6QsKr3/YZuE0nAYUqAIpxho2CvqnyJj7OQD/IJzhS6eIiAuWQv6R7n4coSbENsVITCRkNe3EUbrgE4tcC5sIqIZclvO7/A7K0R4VCFQDF2LoArHyymIiKrH4HyZLX+iWBfkYW4U+1nr1R/r6MBiM4Px6lxeSMiTdzo+g7fRkN7efX1eDifArKsYm+2+Yo3qj3v0IVAIUC4EsoPywkUApRlW71E/aLk50gsvoZEf6VWv3s5Q1reZ9f4fW4HOUVCb//ZtAAQIUqAAr1ALRlCuUjblLxEFGS9e88Mk/UxIed2y8pXRwjt59C/hCo6LQJ+A0oVdWufQHK2Qm//x9gsRGWQqEKgEIBH0DZ5reejcASNkQy9JXzdX2GutZvBFa/8RyrS9ExxIp+giUUVrGmrs84FYolPBHlpRVch8eg/EHC79+C8o96uytUAVAo9uI2JIQP+a1nlzXpeX9hzBi1Xj3hd8RNfAi/YRj7TTh1svcXeWcIx8oZ1wx/AuUuBdhCRO9COSThb3wUNPpfoQqAYuxhuizUjCD+EmUHyaIsDiArtoSBYT0XRvn7yv8C8AL9CPtlmF4OpxVfsFxBPVbDrbxIGadC2Bz8v4csHz81bB2Kd0Da1D/b9+IGvfEVqgAoFIP4CcrfyHL7HRZ8qa17ucFvFKs/dvXCEnP7qd6ZYhyN8gmU0xJedzbm4N0oL0x8fb8fsgBAhUIVAIUihwDfgv/dEY/cGOTPze03DGWB7LHwkb/jWESBfsTfiJ7RwMJJKJ9FeVqCC+4IlI+h/HLiC9s2vnqr3t8KVQAUih5i6HFP34/yenluPzC69/WROTW332v1SzrrUXL7HYoOO9Cv/z0huf0+RScKDkX5J5S3oRwU4fusy/9qyAryPLWEi/1PUX6u97xCFQCFwo2/g8ztm7h7nzC3n2P1k/YDPIpO2VZ/qjoGwbBpgb+F8jWUV4Ksc+AylMs7HoUPQ7bEkBr/jXK93taKukKbASkq9gAM4Ldw86PxtY10MqQoC0VWPIFAo7buley77/0eYiefH4iQ258UNlXvzzvKwL+hfA7lWyibUKb7dsCu79uyvjaG4ALIlhHOKvEit4F/r+jsl0KhCoBC0UMc+YFxNg7g5ZCtzzbr2b2vLOIHKKV7X/2Jvx9WOXxRR7ZBtnx0N2S59rbc7n4dL8HBkC0hVIHXonxDb3SFKgAKBQ+fRFL5I8iqwtXM6pd07/Ptu0RZcHwHqyYBUaFgHWupWNeRE2p0/drqlm/X21hRd2gMgKIK858g8MbORDpIzJw6/j0Empr8KRX9KKQZu45/wXN22+HakX8d8T8oL9OTo1AFQKGQw7pyX4zyhaA6/kGucy75A4FAU+T2u8i/Vrn9ow67fPV8yJYlFApVABSKAOxEorkGbDR11DXwFLn9PvL37Xc/mTM9FkFNfCqP8h8FPIhyFcoteioUqgAoFHFwP/LNLyLpfJ1H5EQCNcBobGNkTXxS5/aDpIkP0eqvNthvWGCL/TwbMve/QqEKgEIRETbN6xko/+Xv3se0+n3WdQ8Zcix4SNu6t3B5Y2hy+0dHQQWroMJNeioUqgAoFGlwL8rTUW7kk7/v/aHBb5RAP67VDx6rX3KslM+AWv102Ap/tprgl/RUKFQBUCjSwrpan4ny3kGCk7j8weMpgEh1/CMW9uEG+rG9HEr+RNgqf5ehfF1PhUIVAIWiHNjKai9Ccno18tMcPU3O5Fj9xk38htiGt8eK5671u77XV8e/SMmhuPy5LZYVXbDpqU8GDfhTqAKgUFSCtyJJXYlyu9tyZkb4R7P6gWn1c3P7Jel9IPBwKLowi/J7KDYzZaueDoUqAApFdfgXlEtQ/jWfIJlkCCZSbn/BZ8hFjPKUhRjpfb7YBoUDP0J5CsqbUVp6OhSqACgU1eM2lCuQzV6Fj9sHrH5qmpwxhMBArtuc262wyOXvs/pD0vuMWv5+2JiTx6F8Xk+FQhUAhaJesBaZ7Rf/WMi6xJVg9QP9M16r3yS0+oGwr4oC/ATlWZA1Hdqsp0OhCoBCUV98D/ntchRbi/1OntVPIXIQpAQySJiT22+MLMLf6eVQdGADTf8M5SLIulIqFKoAKBRDANtD4F1IbrYH/PXQ7ssu6eDny+0npPexK/pRyR8I++6CEr8Dn0J5DMrvoDygp0OhCoBCMXyw/eFfjmT32I4V1+qxhKlEXkj+Hk+BqONfoiY+mttPwVdQngZZsalv6ulQqAKgUAw/7GRu13EvRSL8DNvqD87td9QcCHb5c+sYKPnnwBbyuRayIL9/0dOhUAVAoRg9fAGy4i1PQiLEid7Mp7f6Jel9EqsfBslfid8HW773OZC5+z+IMqenRDFumNRToBgzfK4jNkbgJUiO1uW7pphAPeQftU0xeMhf6/j/P/bOrTeOI7vjp2Z4FambdaFkS5YNJ77BsINsNgH8lLcgzkfIR9jPkJc8BvsNgiBvQR6NwAkQBAECZG1vssEGWMuxLRuyZcmSdbFESiQlXmYqVT3dw+rT51RVc4bikPz/jPYM+zY9PaP5/8+pU1Ujsk6DuST+jgZd+nq4JQAGAICjx8fl8qZb/pL8dK7Wvp4t/CNF/RD+54yftMfXgfwD+Z4iAAAYAAAcX7rlr5xm+nEE/owG7cF/6kR0YbSoPzWUL8R/j1mlQZrfi74fG+IBbgkAMAAASPix3f9xsNi3aVAN7qvCf+b+nopH8eMQ/1HH8Yf402Cs/t+45Z9oUND3Bb7WAMAAANCG/yuXXzpR/UMajAH/505w33GPM1nCr5qFcUT9OQMYHRnW3PI7t/geHv9cPt/GVxgAGAAARo0of10slv7aPf4BFc0D9BdOdN91j6dGE38rrIb4Z3DHLf9Lg4K+/3TL54SCPgBgAADYQzPw3+XyN27xBYM/Jz++AFn/+Ab5brU2IzOwq6ifjnLK/5lbPnPLf9Ggev+3NBjoCQAAAwDAc+daufg+5CcLA2D91MT2T9zzP3LLi4UhQKHfbvDd9W6UZsv31PgVDSr5N/C1AwAGAIBJYiXIDnjOuuUdJ9TeCLxPg6aDl9zfM7sax//wi/9Dt9x0y6dldO+bXfw0z6v4agEAAwDAQcJ3OfuPcvEcL3oWWPK9C/64NAevuceLqrAf3nT/s1Lcr5eG6SoNCve+IxTvAQADAMAh4wkN2q/98vfluktuueKWt8tMwStu+T0aNB3MHQLx92K+XAq9F3c/3sL/lM+/K+8JAAAGAIAjx61y8W3cf1uuO+Mi/3OlMXjLLZed+L/sHn224IJbFsqlOyHvwXfB8+31j8qo3gv7bRrURnztlnvlgrZ7AGAAAAARfioXHy3/axD5z7rlWGEQClNQZAnOlIs3Br7mwBuH42X2wO8/EyxTpWnwi2GphV75uBUsz0rR9otvh/dt9Pfdcrd89JH9ndLA3C2NwBo+PgBgAAAA46USYx9pf5P49+yX+XKZKx/9uunykRsAn6rvB6+xUUb16+W2bcIQgwDAAAAwFjp2sIBxUwn2s9IsgEnDuO/9VG+wALDfP8W4BeB5s7bRdYvznrP+h9AFn12YAXAERH92izb6HfrqhyX68vsLuC8AGQBw9PiXTy7RN9feoLdf26B3XlmhE4tbdO7Us8EPZc950p7BTQIHX/S7ztx2+rS5MUM/PDhFn9+8SNd/PEs3703R++8v0Zs/w20CMADgiNFzv4vLq9P066sn6DdfnKXZ6R69vLRGb115TK++uDowA76JYLszaJ1GggAcpEjfsb01RTec2H956zxdv3uW7j467r73HZrq9qjbWacZNAEAGABwJH8nXYDfdQI/OzP4Eey5qP/a9yfoyxsnafHYNr14dr3IDLz20hN64fgG0bRzAdsGmQEwob+ivSLS39qcphu3z9HXd87Rtdvn6f7KIvX7pviuT7t9pqkyB7hlAAYAgNIQWJqZHoT5m5sd+ubWcfrqxgk67szA5fNr9PuXV+jNy4/ptDcDPsryWQGYAbCfkX6Z3idr6FsX6X/hIn0v+g+fLNDWdtdF+n2adtH+xIzYAAAMAJh0Oi5amvHpf/fN3Nzu0FdlZuDfZnv0+qUV+vnb9+nE3Dade2FtZ7jc7fJXFk0FYE8E3y1ezL3wu+ebG9P0w4PT9Pn3F2h5fZ6u/XDefVe7RZTfdfvMzSDEBzAAAIxmBoLMgE+lfnb9Bbr67Wmac2bg0rk1eufVh3RqcYNeXVot9jVTZcGArx3wj31kCcAuontvQE25uAjf9jv03d0ztLw2T1dvXqDH63N05+HJok3fbS3a8+ch+gAGAIA9+l0uzMCgDXXLCfzXN0/SV9+fpKmupaXT60VdwduvPKTTzhC8/tJy8cM8P781TNMWvQts+dwiWwB32d8ZEqmK7l0U70X94eMFJ/LzdPPhCfd8ke4uH6c7j04Uqf3CaPo2fXdMkeIHAAYAgOedGdj58b376Fih57fuLxbbTjgT4HMAb115SNNTfTpxbJPevPyQ+j1Dx2a3B9GaL0D0GYKqGcGWRYYwBofoi2IHQh9G94XoW1pdPUYbvS5tbE4V3fP8tuXVeXrk1t9d8RX7fpsT/K4/pE9T7jxI7QMYAAAm7UvcHfzIT5ePa0+ni8ePr150+m6o27X07799mfpusy8kPH5sg04df0ZLJ5/SuVNrhUnoOFG4fOaxO5kdmAATpAlM1SXR1FMHxX7IJuw5JrjX4WdSRO/9+r7WDLevP51zYr5YVOH7435340Vaezbjvg99unH3DK1tzLrvh6Wnm9NDY+lrULpO7DvuNF7wjTHFPgDAAABwAOiWwwx3Z3ayBD6163/I768cox8fDjIGnc6Oivsf/8vnHhcmYqvXoZfOPKFXLi4XWQN/7PkTa7R0epVs3wyO9WLhsxC+acFHhlXTgu+i0O8MlpozsOi5UBN1y4S9+vB6O+Jeib8v8jSDmo5t3+5u/DgSx4qDf3h4yn0W/WJdz30Gn337Ij3bmi5EfmVtrojmi++Dv/1lTYh1J50u+uMPEkBS+70JkkMAwAAAcJD1pozofSq3MghhdOf/f+PuyaFkf/vjSfrV55eL53238vj8Jp1c2CyyCP1CNLbp5aUVuvtogd649KAwBv6/badfS6dWnZlYKdYNY1b3Ogtzm4M+45aaaYNeOSq3ZaahomiumAAD4S+hSqsX78/U0+zhtVfRub/umqhb6m3M0DMXec9Pb7kIfGrgBdz6a7d9lD5bfEb+szHuHL4Ab352qyi+++nxQhGhP92cKV56+cl8+dkOPs9BH1H/3Bfo9Wh2anv4OU91+XcC6RsAAwAADIJbpiOjs/luXveWFwLDYOj7+6eL9uEvb54bCkq/77uBbdPC7CZVU204KSuiz1cv+CLFp0VV+WAtFU0UXqTeuXJnYEz6TQPg4ls6u7hO3SrTsJ9R+/YU3VtZLK77BXdNPpL2f5vQsLi3t7k1RZ/duFiI87kT63Rn+XiRNfH3z6fZb/10iu67dRecWbr3eHFgfNx2L/K+/X0Qgdsgo2OKc5lS4ItiPCfyYbt8aOiM6SN1DwAMAACjM6j+rotKJTLVCG+VAPldVp/NuGNKWbSDdPfV73xNQmdnXSmZXtg+/uKVMiKlhnD1nWG4dPYRnVx8VjYtkLjfnuu/E2Lfhn7j3gvOpxh66cxKkQm57iL0Stx3rs3QhjMB/n37nhq93s779nv5ug0fyV+/d4a6gVgPhsjtNdrepXszuP/4bgIAAwDApGQT/FDHRYRaF+qZMh0tibe1ZTqdmm3P3nh40bX3OuwYuw/vzRZ1Eh13Tbd+Ol1ct88C+Ed+OVV07t9z1WWOX3O309u39wIADAAAYAJMw45hkNqlffOEj3j32wDUrqnRDx4iDsBBooNbAAAAAMAAAAAAAAAGAAAAAAAwAAAAAACAAQAAAAAADAAAAAAAYAAAAAAAAAMAAAAAABgAAAAAAMAAAAAAAAAGAAAAAAAwAAAAAACAAQAAAADAaGA2QAAmD5OzjzFmUq7XjrgdAAADAMCREHRRvKuVMWGfJNVvqHxifmK/Xbl8C9MAAAwAAAdKzANBLgSr46h0sNrkVhlByLXzJbMAlU8oX3O/DUGl+/5/HU3IFW+gega+wb1nGxgIA9MAAAwAAHsq8oHgiGIuReRun+g5UtF8TpQfnHO/DEAltiYR+LcS+jBZ0EweGDWjUJ4n3MfCGAAAAwBAUuy5SIdKwpVH2DeWGYgJvWg4/MIEkFJmIuuNZrQeZIg5tY3yFZNQaLZ0b3hTgdB0wI/lhqFhDkJjEFwLjAGAAQDgkAu8DYW4fDSV2FaCWz3npqASELdUKe4wHDUpUxAcH0bslpkDowh1yjzs2hCMIQNgIxkAq5gKy1Q4vPa+o2hGURIExd9+8S0t0vnd8365vUP15gmqjvXNCcJ1htdlYA4ADAAABzSiZ4LfSYl0mLbPiP6T54v8XdFJRfWxaH+UTMA4TUApqG23W8UUdB3JyJ8/Lw1cZai6oZCXx4fXEWYLapkDJWtgkS0AMAAAjImdAG98gi+JtiDejWhdE3uenpeOjRiErMyAdg7tXLnb1Bs13iYAG2Q41O3SNqk3gJL2N8wgGCWV33AG5Y6BL6gLe2gQgp0oMBVG2odnFSbk3wAAMABg/1hdXaXl5eWsH7b19fVRfgBrwiql7HVNjwq/1c6XEvKY6CuCL+2f3C+yLas3wJgMQCNFHmsCUCL98D5WaX0x1K/EN4zgAzMwfA2lHmCo2+H5SmNiudEIo/7wnNU+UlYhNAZtxP/Jkyd0+/btNqmW4vH8+fM0PT2NHxwwnuhpl0U/ANT49NNP6cMPP6S5ubmsSLRld/ahaEcEOhXdU0LgTUbkP7wMwQjEDISNZSQyMgSV6EpGgIv/XjYL2AyzYEmo4o+YAStE8UYJ7GPRP3+NVvsLEX4t2k+sG54zt8CwqkdoawB+8Ytf0NLSEn5wADIAYIKcZFBQN4ZINBblx6L9rNS/0lwQNQaaoQiex+oCOlpEn9lEQJrAC/cyOn7AiIY/ZQCGaX/edi8ZALafJLImUcnfyCgoqXpTRethDwsW8ZswIcCKAVPrwq/I8Nop0lwwweM5ARgAAHZvAkY7RbwtX8gCJGsAUpG+ZDRS+yomILYt1SRgYmI/ysBBIbGml0xzYBMGQIr0jZLCr7mBmBkIjACR3HYfpviJCXnV1MB7YFAo1qGABzUEJrgGw+sLqnMoNQNh80zDDMAEABgAAIToPSHesRS/SUX2StagIcJCV7+2Yh8rKqxEg1qYhJgxUE1AW6GJGIFacwMXev9+fDc+pc9+4++g/V8UeGJN9MH28JxcqE15Lfy8Q2FmYm0FAbcRY9AwDUKEH63JGEcRIQAwAODIin5Gs0CsQDCWNVA9RsJYaOe3rP+/1v1wuF8okFRv+7dSjwElCyD2ZY+ZAUX4+XlsbFjfbrdbvUC/+F+/X3Xrb7SPV0LotwvNA7wXgQ368Buh6L+W6udRPxf6MMIPxT0wCw1joJkB5ZxhkwMFx0WzAgDAAIDDLvyiARiujBuAqC9QsgFJsyBF+GEGIPI6qUxBRzEJjfNFsgai2WiTBUgZgER/fkm4a+uEyLYbvJ4m5mJkT0EanRfiBwbJCl32autZT4GoKAtNBKrQJ6J/dZ4CodmDZz5gBAAMADjcwp+I7Hcl/LFiwERzQDKNn1FmoK2TTIRqJCL7EbUrFMzZ3iYLUBv3XyvwEwSduGiHYkz1+gDeI4+4ULPzmLJ7oIkIMBfpSulDz9CGZHdL2xysQLpfRjNfMAIABgAcNuXvaCoZCGzwZ1qotWidv5Yi0NqxRonuo1kDrSYgo+thlugr9QJaZkDMAozJAEgixQcDUtv8hcjfBEKvRvvUbNvn3S55sR5JBiI4bnhPeBNAkA6omQn2uo0eFeUxfeYsjOA01GGG2TXDBAAYAHAoov6YkGtRu2gKFPGOtvdn1ghk1wwkuiLGjtPWqVkFvm9slOIcI6CZgUThH99H62yvrN4R8bK9X2qbpyA7wLdLAi4V60nfv8bMwtSsaTDhYFC0M89BtX91EbW2e2G+h07tYus9CqrjrNAMYNhxht9EAGAAwEET/9x0/m63R2sIdtlcED02jMgpszkhUkuQyhDk9jqoiX1qnoDdGAAe1QfrpOcmFs3TTkpf7a7H2viJ6aM0l4DRIn1SUvdCpsIIhX1hMWCtHoBYU0NYCEj13hK8awOxLETtONadENkAAAMADq74J1L6JtXmromm1NYe7stFWhHiHKGWXls8t3BAY+RA6XWEbamsgBr1Z3YZzDEBfLx/qRZA7J7Hi+2ECn7LJt+pibJ2LTy9zx5teE+0cQoEM8BrBaThlaV+/TVTkrG+MXKkJPrMoEiGBgAYADCZ4p9Yp24XolkjHZ+oug9FVepXrxoMQeAb+yedAbtmqQ4hPJZNQ5ydLYjMNFhrLmDj7ic/PBadFuLj/xek7mvt1FKqvorsKUilV8dw0Wava7lZYsPtDveRomja6U7JMwZS+zqv/Cc2sp/YbY+a3QFzt5NgLvg1a/+eIP4ABgAcDPGPDcnbNq0/hu1axB/dLmQsGgKfKCI0iTqF2jgAqXqFjCyFmCkIpzmOmQBlnP7aXANsAh1i0XyjUI6E9nRWcDeMjEuDoY6wJ0XGYXZCi5ylRx6ps7+D09S3axkAZXvjOklKDwRFh9JYBawoEUYAwACACXYAsihmj/8v7atFu5EpekkRdxrFHFC88j+23SSuJbVdNCFSRoKbA54dSBgAqbK/NqZ+EKUni+uE7I0mnlwsa9kEanYVtMJgPVHRjz2S3qdfitijkXzu8Uo/xNrEUeF2wVwBAAMAJjMLEFnfZv76VuPetx0XP8M8kNJcIAqttp03MQgZE5IyC5K5yDEPEXPAtw1T/Kw9v5a2F1LoxLr2hWl28W9uAnh6nHfvo0RVv3RNuq7GRZqdSzIY4mso15D8vgndB612rt0OWABADh3cAjBp2QMa35S2JiKuYzM4bUbiyzEfueYidl7eLFHR6XRMQEdYZ/jQxSkDpxUhKqZpLPdm3N+T8X6NxfcPEQfIAACgIQwSY0dUbK2ddqTLTJxD255sI1a6palt3dp5gyheHMe/nLSHz54nddwn4bERkErT/Arnsco9Sd3r2Hq7i8+OdnEdbb9z0n3bVfoe0T+AAQAHSsdzBbClsDYMQtvtXHT5cLXhOdhjo5o8FGkKqteV7VoUbJXR5WqV9aSMPqe9N94Pv7y+VMQbG9DHaoIeTr4TiJXl+wqPqe1R88Efw+sVjIptcy5te0LgU6ZDmkdBNVsAwACAAxjEN2dSCwdRkXZk27VJUySRrlVQKyJutS5hmdcsFaTVhqHlwi+IuGRyGiPhCYPcRKNGoUpeGijH8DbsnEiYR+1cqBSxtiRP7rOj+unz5JqDxusqmQa+3iayCantseO07Icq/NprhPeSMGsggAEAh8kgaFGoNG97Tjep8IcyJuKR7Y1pXUmYeU6K1HkWQxF1w/qZN6b6VbIlHl+r0yehQr56nX6/b4Lph0Px14riVPHnAh1E+pXRspFmAZ4ZELMGMWHnmYWWpsC2MBe0i+3R9W3MRSq9j2wAgAEABzoLwJSItOFcBTEmoT84RSqwpYg7ZxKXcLAcSWQ1keYRfSS50Rzmnb1ObEY8v7JHwfC5xHoCOPEnIXMQDgakiT7FMgHS2P/+tbR9pKxBZH6A1saAR9cthZ+UCN222N547dy/R31E9A9gAMCBjfSFAU3U7UravjFCm2ImwrHna33XQ7HRjEBkvHmivEKunLS91o1OHJ2OGRspyuciXyvwo/YFaFaJQq2WHYgYAjG6J33CoHBFbH9xmyLojddSTMQ4TYOaHkiJPMQfwACAQ5UJUGY6awiTZBLCMdTZcYabCWFI2EY/b5IHdBH/VgrvTCQbEM0KUH0K3FrdQFj0x2bHC7MU4ZS4pMx2J113bgZAawqIGgPNFAhZgVgUHzUPMV3NFf4WAt/GLGiZgpQ5iL42xB/AAICDbgJEgVRGOpPGYxXHjpcEloJR6gSh1eoPpHnp+etLU8MaPtBNde7QjPBBd9hY+eEUv4bVDQwNUZV2l/rG8/H+WeTfRvhbZQLCsf2Dzy+cwa9Wkc8+S0m8w8/CJrIGuT0IcoVb2jcp2nxTi3Mg5Q9gAMDRygZQxpCoyRx8JCJX0vqNqL0smuOzCfLihYYJYT/MJojQw/0bQi+13VNz3gTL34sS0UvT/to9MACxTAAXYTH6Z9uLJ0oNQfi8L4TuSfGPrJPbDzIyEZH2/2TGISOboDYp4OcCwACAQ2cCFCGhnMlOKmHmmYAWXdyG+7Af5UYXQSWar43sxiJdI7TRG2VfCs5L7HVrs9nxaDtlCJ5jBkDbpq5LpPf5czGaJnk8gkQgndX+3ypbsMuMQjKzgJ8IAAMAjowRyBlDPTU2uhCdG2kdi9yNZBikZoZgClox6teaAYLx3UPB5gP88HNboVdDo8CPG4aMDEmuGdhNtzSbKBTURFzdnigYTImypv6x2oFWgj1m4UfUD2AAwNEzAvXZZQ0XKGloWwrGqucj/1Fkelce4VvWvbARebM+9bXBhqQR+gJ/UhNvvj5sO6/a8Ms+/A2RruoHeLMGpSdDGjXyV02BksEJ2/tFoRfa/iUjqHYhDM1AIvrPep7Ry0DaT6pRELU9vMZwf4g+gAEAQI8i1Ur5cGcmzIZNUWsDAW9E3cIYAjbshkfCaH9hDwIm8qFAWy70VG/T5yP08OOkyL9hCjSBH6HbX3bWpsX27HUZdQHZWQBBeCkh1qlMQcwMpAr/qmuyUjMJADAAAAhZgUDExEmBlKGFG8IoDRfMBhYKzxcmGojvS2w8AZ7iJ6FJgPS0fk3Uw/2FSN/mRvlCT4mxFAEqBiCZHYgJt2IKbEbzgGgmUm37meZA2y+766I2AiIAMAAAjM8MSO3tVhhzYCjeUht92Oc+zBYIXfYMzz5wgU+IvU1U81Mq+o8VPI7Y/p+MUFtmAGrnihUFSufnY+W3LSrMEP5otB9u144Jv1tI7wMYAAD23gw02unD56FIMyEutpfd/8yOZpphxM2yAkYRZ1G4pRR+rA+/dEyb/TIi/1EzAKqQtTUCOTUCWvifkwEIx5BIHMTT/uF7jFX9a2E/uu4BGAAAnrchYD/EtQxBKNThfPfhaII5KX7JZNT68QlNAZRXya+m/YWRCpMGIDHqnx3X/R4hE6CJe0xn1XPyiDysIYg0JeyuWpDiXRIBgAEARx7/I7y9vV0s+2UIqFmsxzME1Ol0qNvtktKOHwp8aBbC4YvFNnxSUv4sa2AThkCM/rUuf5EMgNmre5wxQ120OSBzaOGUK4hujriAnHEHIPgABgCANiwsLNDFixdpZmZmX69DmHI33GaePn1qVldXCyNQpejd88bwvOXzftBNkHjkLwm30p5vUoLeoro/xwCM0wjkFAMmBZ1naFpmARpCnsoKCCdMCf+wWj9nfAoAYAAAKHnvvffo3XffnfTLtJ988on96KOPaG5ubth+3Ov1DIvUKfjbKtsaQk+JtnzpPLF9U9ueU+SvmoH0dPa2VSYh0f4vHZusI0gVE0LsAQwAAGOKvicdH/lHRKkWkfsBeqQoXjIHvBhMK+bj5+Hn4utziszG2PUvS/xzBdPqO9rcJoKcroWpwsGD9P0EAAYAgL0KYdtFe2IkKZgDSewb0wyHoxYyU7DrDIAgbuMeBChT09NRfipyl15Dmj0w6J45/DsccRAAAAMAwJ56CU21qtkGuYiH65i4F/UGgoHIzbo8d9XLdgLBwDq9Xi96DzUDwM0CX8cmXFKNnpTuz103KcYVzRUABgCAXeJFeGtrq+gJEPux56KiTTOsCZQgWFYSGk1Lcwr/dmMYnqP4D/fx9/vKlSv0wQcftBZfGIA6Z86cwT9iMDYMHCU4SqysrNCDBw+0WgCwR6ZrcXGRlpaWcDMAgAEAAAAAwH6CMAgAAACAAQAAAAAADAAAAAAAYAAAAAAAAAMAAAAAABgAAAAAAMAAAAAAAAAGAAAAAAAwAAAAAACAAQAAAAAADAAAAAAAYAAAAAAAAAMAAAAAABgAAAAAALTl/wUYAKI7DMMkk5rjAAAAAElFTkSuQmCC;" vertex="1" parent="UzyxxTVXNqjpSGp4Ei8d-20">
          <mxGeometry y="127.1111111111111" width="70.47619047619048" height="70.47619047619048" as="geometry" />
        </mxCell>
        <mxCell id="UzyxxTVXNqjpSGp4Ei8d-22" value="" style="group" vertex="1" connectable="0" parent="1">
          <mxGeometry x="576" y="310" width="84" height="240" as="geometry" />
        </mxCell>
        <mxCell id="UzyxxTVXNqjpSGp4Ei8d-21" value="" style="rounded=1;whiteSpace=wrap;html=1;" vertex="1" parent="UzyxxTVXNqjpSGp4Ei8d-22">
          <mxGeometry width="84" height="240" as="geometry" />
        </mxCell>
        <mxCell id="UzyxxTVXNqjpSGp4Ei8d-6" value="" style="dashed=0;outlineConnect=0;html=1;align=center;labelPosition=center;verticalLabelPosition=bottom;verticalAlign=top;shape=mxgraph.weblogos.html5" vertex="1" parent="UzyxxTVXNqjpSGp4Ei8d-22">
          <mxGeometry x="18.94199999999996" y="133.33333333333331" width="44.016000000000005" height="65.77777777777777" as="geometry" />
        </mxCell>
        <mxCell id="UzyxxTVXNqjpSGp4Ei8d-9" value="" style="shape=image;imageAspect=0;aspect=fixed;verticalLabelPosition=bottom;verticalAlign=top;image=data:image/png,iVBORw0KGgoAAAANSUhEUgAAALoAAAEPCAMAAADCoC6xAAAA81BMVEX///8mTeQoZPHr6+sAAAAoZvLy8eslSeIlS+PZ2dkOQ+L39uzw7+soY/EcSOQeYPFwg+VwkfR2h+anr+c2VOQPDw/DzPZ5lfW9vb2uvPcSXPElJSWQkJAuT+OsrKxoaGhLS0sAU/AAO+PIyMgAV/D29vbL0/cAUvALQOL3+f4ANeNpaWkzMzMZGRnm6vsyWOXW3fng5fq3wvTw8v1aWlpCY+ZKaeecq/Gvu/PI0PeDlu1cd+mIm+6To+/+/Ow8X+ZKdfJbdunh4uqYqPBDQ0Oenp55eXnS0tJpgOq7v+hUaeTV2erO1vqNpfZhhfNcceUALuPlTxBWAAANRUlEQVR4nO2df1vayhaFoxZJo4A/8ci5tIUqBlpFoYoiVq0992qr9Xz/T3MT0pjMZM/KzDBBeJp1zvP0j5TwdphJFnuvDJaVK1euXLn+ZC29FWnJP7wvPPx2/HLx4f3M0b+8EendGE14+E3Ky//KHP29Lvrf45d/yNFz9Bw9R8/RGc0R+oePMYV30xj6u+BAeDj7u2kM/cunT++9/8f69P7LRw79i7X/opeXx9Df7hPHp4T+ljgcQz/8/jnSh+9fePTY0c/fP3z+OEPonA55dE5Tnetq6DN1hfnD0GfE9P5ho56j5+hK6N9nA/2fj38FCv4cVwSspaV4zeDjNoe+xB7/9EronN69/J39pfC/JR59fNhX8Bf+O0Pob98cHm5vH/raPtz+OyIPr+vb/oEXxY7PALpIM7VMc/R5QZ8RD5Oj5+jp0i5Svz76u/+I9L/f6NukXtAFh6eAnqZ9oVL+wqtS58qVK1euXLly5ZJWvzpHOmLQqx1nbtSpMuhH7sLcyG2x6GX7tYmk5bITpl2cG3TbZtGt7vygL3CXmNPiayPJyr7m0O/Lr40kq/IZh74xP+j3HPqV89pIsipvcOi7c3NhdwYc+vncoLu7HPrj/KD3OPTj+UF/5ND7maDbRsSe0znm0DNxAvZiyYAWK8w5nT6HbtUzQC8WFk2oxqDX2zx6Fk7AEDrjr+w6T26dZXA7NYS+FUcv8j7AsnZmF52Zy+XLBPooAydgCj1+zvIwgT6YWfQCc05nlEDvZXBhzwI94QMsqzqz6IvMZTvhAyzrZGbRSyz6RRI9g5pAJugnCfT2rKIXWB9QPkqgW1vzgV5M+ADLujbvBMxMGNYHdAn0W/O3UzPorA84TZJnUc4wg57mAzJxAobQ46csrxHoGTgBM+jMKZ0rAj2DmoCZKwxzSpcvZfi6mFV05spH+ADLaiF0u6wjp6KlEsvOoid9AG5s2N2NNR2t62inwLBXWB/A1wN89UFNoHj6dVlHxNtIiEEvpNUDPLVBTcC2V5Z0pIdeY9C7DMgChQ4bG+7q9NDbDWaqp9UDfJ0BE9P8Nj30PovO+gC+pRFoDTiB5s/poR/vidHLz+RLhgi9pTVjtNAvWHTWB/B9gUB3wAm4D9ND79WYOxLDQZQyfKHGhrM5PfQBg85ZGMoH4HKGc7U8NfSrCjPqzHXPOSdfgroDznB66DsMOlfKqJIvOQZzvXw/PfRfDHop3Qd4twIHOIEfWrdTLfQb1sKwn36ylDFGXwBOoDw9dObayJcyiC/VvpAT+Hd66A6DzvqALQE6amx0dMi10PsHyj4AlzP0nIAO+gnyAT8EL0JOwNVyAjroj8gH8NGGUKicoecEdNBZH8CiE32BQOadgA76LrAwzp3gRag7oOcEdNCf2FFn70i0D8DlDGe4MqXvpkN0M6V9AG5s2NcbGtpBWqc5oA/gow2hYNhRpxKD6zANGv0MlDIEPsBzAnwIYlLh6tcebaUWQSmjSLQ0AplubGD0Bs3BfKkusNEGPuIY+6wMNzYw+gH90bM+oCvlAyzr0nB3IGXCkAwnoJQh9AG4nGEcvVQgGbR8AK4JmEe/IRmqwAcIShm+BoZL7BC98otk2FWvB/gyHXGA6DXaSg2AD3CS0YZQphsbGJ3qCvH1gIKcD8A1AfPotJVa1/EB5p/YwOhUVyhRD5ApZfjqG3YCEH2PHsIa8AFlsi8QyLATgOhSPoBtadQBuuGIA0Q/IDm4vkCNLWWIya1ns7dTjE4SHLGjnh5tCGU47IjnOknAtTTSow2hhmavjghdxwfsAHTDEQeELvAB56geICpl+DLsBCA6PYR3wMIQEcfYx4XQi8rPKLo1sRq0D4ClDPomFgg1NorPm8raBaLvjLAe0CJfEgiFHcuXK6uqAm8l0C1ATzzqEBcKO+o0NtTRUbSBijhG6MAJ6EQc1NGZL9Ucui3oCwRCTqAzdXTOB1ARx0g/wO1Uo7GhTH6Eog3IB+Cwo0ZjQxkd+gA62hAKdgfUGxvK6NAHiEsZvgxHHJTRYT2Avom9vNRsY0MZna0HcPkAcSnDF25sZI8+RPkA5AMsq4VyAhvKPRlldI1oQyhUE9CIOCij36hHG17QYdhR+Z6kjK7tAyz4AKRdzx69ohxxjHQN0NXDjqrkbdTSQPUAX8gJNFXJldFhxBH7gBQnoJzTVEWHPuA25cVoFwf1sKMqOow4Uo86xIVqAupOQBW9B3yAIOIYaRegqzsBVXSNiGPs342cwODrippU0Z+AhRFGG0KhXRzs+paiCiJVaBe4jnwA9ahDXLCxobp3QVG4j0CNrgZpRBwjtV2DJXZx9atGW6kCiDgST2ty6CDsaBB9j/702ZupXMQxksn9nMToDXoIQT5AGHGMZHIXB4BOWilUD0js3pSUyWc3ATr53mzEsZC2awMvFHY0h063NKAPwPUAXyaf3RSiC1IZyAfAvkAguJ+TzNYzMuhS0QaupYFLGeN/ORh1e6FOScguRl8n31u7LxAIhh2vKBPzVbg8xOhP5HtPUMrwhcKO5TWqJrAqLJkJ0Wu0C7ycxAfgsCPdHVjdVEdXjjbYwohjJBR2tK9J9AfRByVEF0QbSloRx0jACdgOOWGEzweL0elPn21pcLs3pZPDsGOH/Jr0s6mKTkcb2uBRBwkfgJ1Ah64JdJTRSSulGXGMhBsb1LCvqo56qUK+Mx9xZNDTfQDe2dG9oNCXRR5fiE5bKfSoA4g4RoLlDLImsCKq9onQK3Q1CLY0RI86MP92WBMg0UUJICG6TLRBqaURCDqBEXV1XBaVzETognTmBH2BQCjiQDc2lkVGWYhODyGMOKJoQyi0s2P5WckJCNGlfABzqtR6wBgdPQC5RaKLlocQnf70K5oRx0go4kA+uyk0MSJ0gQ9gv5lyPkAKHUUcXILccwL/0k/Z0uilmktaKRhx7MqQw7CjoDvwMOp23KRbTqKXKrWDmyfaN04QbQgFuwN0xGF1eeVbb8NpOuxLOfRKrVEZ9oSf/MQ+AIcdQXfAw/+5edlxnWi+xdArtb3Gr114mdCOOEaaoLGxurzcujp9mTu/0Use9s0g9QsarAeklzJ8naPGBukEGPrVlW8Pw/J47njo/uReHFVT64UW9gEw4hhp8mc3x3Pnvtl0K43a+rnUZc3TSOdpTVbqTkA4dwYy98BQ2hHHSCdgK4TypULEQTHnqB1xjATDjmoRByV0VA9wJOoBVkrY0c0OHdUDFmTWuYWdgNouDirkbf2IYyS0x7Na2FEFHdUDJH0AfnZTLeyogs5GGwoqEcdI5sKOKujQB6RFG0LBsGMvK3TtRx2YkxgLO6qgw4ijTCnDVxWZmKuvy/LwKujwkcf0vkAg+EMVTnf0sLoiSS/NffFUYKe6RinD1xFs4tmO27nd/LkiM/hSb3cyuDzYq3H7T0o/8sihp/7aQ9lpljcellZWU/BT36rf26k1amzpiPABaRHHSDK/9mCX3c7pXQsPPn6bx7ubgxq/3SeJbssaZxR2ZFR03Ob95jcxvvgtjnZ/JWdJDF3+kUdWKOzIq+w2t0b+3JFHb1dHi9QsiUvPByhvheAv3OcBtXCJcx8PbtFwh5J/5JGVxk9WeQvX3eh94xYud15vUTb2UoY7RGdOLlfK8KW3i8N44V61lmODHz/p49PZgRy2L+bMTlrEMRIKO2IFC/dl7oQnPNn91ZCYJUJ0mb5AoMme3fTmTn0YLFz/ZO3qsJK2KBPiLIxcKcMX3ONZRt7CbfoL11uUwks3llrEMZKRn6zyBt+pSS7KhJSjDaH6oJyhIv2dwLmWhrQPsPqGfvdJG12rpRHIUNhRf9RVI46RDIUd9dHldnGkZCjsqI/O+oD0iGMkQ7s4aKIXFgt69QBfhsKOGugedqlWZ7/rKPgAYz9eqYjuYS9WtpLBSYmIYyQUdswI3eOubC3YVL9Zsi8QyNB+TrLo/izp1oU5VelShi9D+zlJoRcKJX+4wZ1EwQcY+8mqVPSC35Wsk7Mkki3Z0ghkaGdHiB5cS1CaOURX8QFW24wTEKP7wy1YlEn05A9UIplxAjR6yqJMostFG0KZ2dmRQPcXZR0uyoSkIo6R1pqOgZXKoavMklC2941Fvh7gq/14d+YQMRFtdOlFyXB7CGcD8cZ2Qh31hl1nosEP0TWH2+mCCEqqjgeXtuvo/s6vj+7f4FUW5Ri76LgLl0pdelL9i9Gp5twpFjw/pbgo/UqUczpqKV0QgU7O77dc9bljd9Vnibu11pP/Fi2l9uPgzBsPNXrVWeItSpWbvoKOqsOuO/F1h+T2RuV6WNVflDI63r1ciOe7DGB7w12/x7kwU2q3RqemBn+8KK+MLUoZHfXWdBYuh+0tyh3Ti1JG7ePBWVF14b5ge7Ok+JzVopRRX2vhjhflKONFKaOTYOFK4geL8nwqi1JG7ccrqTvueFHePU5zUcoobeF62K+0KKUkWrj+LLFvJ/dT2Sq5cINF2Xr9RSmjk9373wt3fOm+7834cLMKFq7ml5zX11FvBi7duXLlypUrV65cuXLlyvWn6P/Gbje2b2WIqQAAAABJRU5ErkJggg==;" vertex="1" parent="UzyxxTVXNqjpSGp4Ei8d-22">
          <mxGeometry x="18.94199999999996" y="44.44444444444444" width="40.626" height="59.2" as="geometry" />
        </mxCell>
        <mxCell id="UzyxxTVXNqjpSGp4Ei8d-24" value="Private Endpoint" style="image;aspect=fixed;html=1;points=[];align=center;fontSize=12;image=img/lib/azure2/networking/Private_Endpoint.svg;" vertex="1" parent="1">
          <mxGeometry x="423.72" y="720" width="54.55" height="50" as="geometry" />
        </mxCell>
        <mxCell id="UzyxxTVXNqjpSGp4Ei8d-25" value="" style="endArrow=classic;startArrow=classic;html=1;rounded=0;exitX=0.5;exitY=0;exitDx=0;exitDy=0;exitPerimeter=0;" edge="1" parent="1" source="UzyxxTVXNqjpSGp4Ei8d-16">
          <mxGeometry width="50" height="50" relative="1" as="geometry">
            <mxPoint x="451" y="540" as="sourcePoint" />
            <mxPoint x="450" y="490" as="targetPoint" />
          </mxGeometry>
        </mxCell>
        <mxCell id="UzyxxTVXNqjpSGp4Ei8d-27" value="" style="endArrow=classic;startArrow=classic;html=1;rounded=0;" edge="1" parent="1" source="UzyxxTVXNqjpSGp4Ei8d-5">
          <mxGeometry width="50" height="50" relative="1" as="geometry">
            <mxPoint x="401" y="820" as="sourcePoint" />
            <mxPoint x="450" y="790" as="targetPoint" />
          </mxGeometry>
        </mxCell>
        <mxCell id="UzyxxTVXNqjpSGp4Ei8d-28" value="" style="endArrow=classic;startArrow=classic;html=1;rounded=0;" edge="1" parent="1">
          <mxGeometry width="50" height="50" relative="1" as="geometry">
            <mxPoint x="450" y="710" as="sourcePoint" />
            <mxPoint x="450" y="660" as="targetPoint" />
          </mxGeometry>
        </mxCell>
        <mxCell id="UzyxxTVXNqjpSGp4Ei8d-31" value="" style="endArrow=classic;html=1;rounded=0;exitX=0;exitY=0.5;exitDx=0;exitDy=0;entryX=1;entryY=0.5;entryDx=0;entryDy=0;" edge="1" parent="1" source="UzyxxTVXNqjpSGp4Ei8d-19" target="UzyxxTVXNqjpSGp4Ei8d-21">
          <mxGeometry width="50" height="50" relative="1" as="geometry">
            <mxPoint x="640" y="480" as="sourcePoint" />
            <mxPoint x="690" y="430" as="targetPoint" />
          </mxGeometry>
        </mxCell>
        <mxCell id="UzyxxTVXNqjpSGp4Ei8d-32" value="" style="endArrow=classic;html=1;rounded=0;entryX=1.031;entryY=0.484;entryDx=0;entryDy=0;entryPerimeter=0;" edge="1" parent="1" source="UzyxxTVXNqjpSGp4Ei8d-21" target="UzyxxTVXNqjpSGp4Ei8d-3">
          <mxGeometry width="50" height="50" relative="1" as="geometry">
            <mxPoint x="470" y="480" as="sourcePoint" />
            <mxPoint x="510" y="430" as="targetPoint" />
          </mxGeometry>
        </mxCell>
        <mxCell id="UzyxxTVXNqjpSGp4Ei8d-33" value="" style="endArrow=classic;html=1;rounded=0;entryX=0.5;entryY=0.016;entryDx=0;entryDy=0;entryPerimeter=0;" edge="1" parent="1" target="UzyxxTVXNqjpSGp4Ei8d-3">
          <mxGeometry width="50" height="50" relative="1" as="geometry">
            <mxPoint x="451" y="330" as="sourcePoint" />
            <mxPoint x="350" y="270" as="targetPoint" />
          </mxGeometry>
        </mxCell>
        <mxCell id="UzyxxTVXNqjpSGp4Ei8d-34" value="" style="endArrow=classic;html=1;rounded=0;exitX=1;exitY=0.5;exitDx=0;exitDy=0;exitPerimeter=0;entryX=0.5;entryY=1;entryDx=0;entryDy=0;" edge="1" parent="1" source="UzyxxTVXNqjpSGp4Ei8d-16" target="UzyxxTVXNqjpSGp4Ei8d-19">
          <mxGeometry width="50" height="50" relative="1" as="geometry">
            <mxPoint x="720" y="600" as="sourcePoint" />
            <mxPoint x="770" y="550" as="targetPoint" />
            <Array as="points">
              <mxPoint x="747" y="624" />
            </Array>
          </mxGeometry>
        </mxCell>
        <mxCell id="UzyxxTVXNqjpSGp4Ei8d-35" value="Storage Account" style="image;aspect=fixed;html=1;points=[];align=center;fontSize=12;image=img/lib/azure2/storage/Storage_Accounts.svg;" vertex="1" parent="1">
          <mxGeometry x="583" y="170" width="65" height="52" as="geometry" />
        </mxCell>
        <mxCell id="UzyxxTVXNqjpSGp4Ei8d-37" value="" style="endArrow=classic;html=1;rounded=0;entryX=0.569;entryY=0;entryDx=0;entryDy=0;entryPerimeter=0;" edge="1" parent="1" target="UzyxxTVXNqjpSGp4Ei8d-35">
          <mxGeometry width="50" height="50" relative="1" as="geometry">
            <mxPoint x="470" y="90" as="sourcePoint" />
            <mxPoint x="520" y="40" as="targetPoint" />
            <Array as="points">
              <mxPoint x="620" y="90" />
            </Array>
          </mxGeometry>
        </mxCell>
        <mxCell id="UzyxxTVXNqjpSGp4Ei8d-43" value="" style="endArrow=classic;html=1;rounded=0;" edge="1" parent="1">
          <mxGeometry width="50" height="50" relative="1" as="geometry">
            <mxPoint x="450" y="140" as="sourcePoint" />
            <mxPoint x="450" y="230" as="targetPoint" />
          </mxGeometry>
        </mxCell>
        <mxCell id="UzyxxTVXNqjpSGp4Ei8d-44" value="" style="endArrow=classic;html=1;rounded=0;entryX=0.5;entryY=0;entryDx=0;entryDy=0;" edge="1" parent="1" target="UzyxxTVXNqjpSGp4Ei8d-21">
          <mxGeometry width="50" height="50" relative="1" as="geometry">
            <mxPoint x="618" y="250" as="sourcePoint" />
            <mxPoint x="730" y="240" as="targetPoint" />
          </mxGeometry>
        </mxCell>
        <mxCell id="UzyxxTVXNqjpSGp4Ei8d-45" value="Frontend" style="text;html=1;align=center;verticalAlign=middle;resizable=0;points=[];autosize=1;strokeColor=none;fillColor=none;" vertex="1" parent="1">
          <mxGeometry x="583" y="550" width="70" height="30" as="geometry" />
        </mxCell>
        <mxCell id="UzyxxTVXNqjpSGp4Ei8d-46" value="Backend" style="text;html=1;align=center;verticalAlign=middle;resizable=0;points=[];autosize=1;strokeColor=none;fillColor=none;" vertex="1" parent="1">
          <mxGeometry x="732" y="280" width="70" height="30" as="geometry" />
        </mxCell>
        <mxCell id="UzyxxTVXNqjpSGp4Ei8d-49" value="Web Browser" style="sketch=0;pointerEvents=1;shadow=0;dashed=0;html=1;strokeColor=none;fillColor=#434445;aspect=fixed;labelPosition=center;verticalLabelPosition=bottom;verticalAlign=top;align=center;outlineConnect=0;shape=mxgraph.vvd.web_browser;" vertex="1" parent="1">
          <mxGeometry x="60" y="422" width="50" height="35.5" as="geometry" />
        </mxCell>
        <mxCell id="UzyxxTVXNqjpSGp4Ei8d-50" value="" style="endArrow=classic;html=1;rounded=0;strokeColor=#0000FF;" edge="1" parent="1">
          <mxGeometry width="50" height="50" relative="1" as="geometry">
            <mxPoint x="70" y="600" as="sourcePoint" />
            <mxPoint x="70" y="480" as="targetPoint" />
          </mxGeometry>
        </mxCell>
        <mxCell id="UzyxxTVXNqjpSGp4Ei8d-51" value="" style="endArrow=classic;html=1;rounded=0;entryX=0.8;entryY=-0.028;entryDx=0;entryDy=0;entryPerimeter=0;strokeColor=#0000FF;" edge="1" parent="1" target="UzyxxTVXNqjpSGp4Ei8d-1">
          <mxGeometry width="50" height="50" relative="1" as="geometry">
            <mxPoint x="100" y="480" as="sourcePoint" />
            <mxPoint x="100" y="590" as="targetPoint" />
          </mxGeometry>
        </mxCell>
        <mxCell id="UzyxxTVXNqjpSGp4Ei8d-52" value="" style="endArrow=classic;html=1;rounded=0;entryX=0;entryY=0.313;entryDx=0;entryDy=0;entryPerimeter=0;strokeColor=#0000FF;" edge="1" parent="1" target="UzyxxTVXNqjpSGp4Ei8d-2">
          <mxGeometry width="50" height="50" relative="1" as="geometry">
            <mxPoint x="120" y="430" as="sourcePoint" />
            <mxPoint x="160" y="380" as="targetPoint" />
          </mxGeometry>
        </mxCell>
        <mxCell id="UzyxxTVXNqjpSGp4Ei8d-53" value="" style="endArrow=classic;html=1;rounded=0;strokeColor=#0000FF;" edge="1" parent="1">
          <mxGeometry width="50" height="50" relative="1" as="geometry">
            <mxPoint x="170" y="450" as="sourcePoint" />
            <mxPoint x="120" y="450" as="targetPoint" />
          </mxGeometry>
        </mxCell>
        <mxCell id="UzyxxTVXNqjpSGp4Ei8d-54" value="" style="endArrow=classic;html=1;rounded=0;entryX=-0.047;entryY=0.484;entryDx=0;entryDy=0;entryPerimeter=0;strokeColor=#0000FF;" edge="1" parent="1" target="UzyxxTVXNqjpSGp4Ei8d-3">
          <mxGeometry width="50" height="50" relative="1" as="geometry">
            <mxPoint x="230" y="429" as="sourcePoint" />
            <mxPoint x="280" y="380" as="targetPoint" />
          </mxGeometry>
        </mxCell>
        <mxCell id="UzyxxTVXNqjpSGp4Ei8d-55" value="" style="endArrow=classic;html=1;rounded=0;exitX=0.016;exitY=0.813;exitDx=0;exitDy=0;exitPerimeter=0;entryX=1;entryY=0.698;entryDx=0;entryDy=0;entryPerimeter=0;strokeColor=#0000FF;" edge="1" parent="1" source="UzyxxTVXNqjpSGp4Ei8d-3" target="UzyxxTVXNqjpSGp4Ei8d-2">
          <mxGeometry width="50" height="50" relative="1" as="geometry">
            <mxPoint x="210" y="500" as="sourcePoint" />
            <mxPoint x="260" y="450" as="targetPoint" />
          </mxGeometry>
        </mxCell>
      </root>
    </mxGraphModel>
  </diagram>
</mxfile>
